<svg xmlns="http://www.w3.org/2000/svg" xmlns:xlink="http://www.w3.org/1999/xlink" width="50" zoomAndPan="magnify" viewBox="0 0 37.5 37.499999" height="50" preserveAspectRatio="xMidYMid meet" version="1.0"><defs><clipPath id="b9ffbe4598"><path d="M 0.554688 0.695312 L 36.609375 0.695312 L 36.609375 36.75 L 0.554688 36.75 Z M 0.554688 0.695312 " clip-rule="nonzero"/></clipPath><clipPath id="05913d0121"><path d="M 18.582031 0.695312 C 8.625 0.695312 0.554688 8.765625 0.554688 18.722656 C 0.554688 28.679688 8.625 36.75 18.582031 36.75 C 28.539062 36.75 36.609375 28.679688 36.609375 18.722656 C 36.609375 8.765625 28.539062 0.695312 18.582031 0.695312 Z M 18.582031 0.695312 " clip-rule="nonzero"/></clipPath><clipPath id="86cb5c531c"><path d="M 12.613281 12 L 17 12 L 17 20 L 12.613281 20 Z M 12.613281 12 " clip-rule="nonzero"/></clipPath><clipPath id="684f0a5392"><path d="M 14 11.984375 L 20 11.984375 L 20 19 L 14 19 Z M 14 11.984375 " clip-rule="nonzero"/></clipPath><clipPath id="cb8581954b"><path d="M 14 12 L 24.453125 12 L 24.453125 22 L 14 22 Z M 14 12 " clip-rule="nonzero"/></clipPath><clipPath id="abc8fbb370"><path d="M 16 17 L 22 17 L 22 25.308594 L 16 25.308594 Z M 16 17 " clip-rule="nonzero"/></clipPath><clipPath id="3e41dfcf64"><path d="M 12.613281 20 L 17 20 L 17 23 L 12.613281 23 Z M 12.613281 20 " clip-rule="nonzero"/></clipPath></defs><g clip-path="url(#b9ffbe4598)"><g clip-path="url(#05913d0121)"><path fill="#ffe0e0" d="M 0.554688 0.695312 L 36.609375 0.695312 L 36.609375 36.75 L 0.554688 36.75 Z M 0.554688 0.695312 " fill-opacity="1" fill-rule="nonzero"/></g></g><g clip-path="url(#86cb5c531c)"><path fill="#f15555" d="M 14.066406 12.660156 L 12.894531 19.789062 L 16.503906 13.058594 Z M 14.066406 12.660156 " fill-opacity="1" fill-rule="nonzero"/></g><path fill="#f15555" d="M 13.355469 19.828125 L 16.660156 21.601562 L 13.929688 18.761719 Z M 13.355469 19.828125 " fill-opacity="1" fill-rule="nonzero"/><g clip-path="url(#684f0a5392)"><path fill="#f15555" d="M 19.535156 13.042969 L 17.5625 11.988281 L 14.292969 18.085938 Z M 19.535156 13.042969 " fill-opacity="1" fill-rule="nonzero"/></g><g clip-path="url(#cb8581954b)"><path fill="#f15555" d="M 17.703125 21.9375 C 17.726562 21.882812 17.75 21.824219 17.785156 21.746094 C 18.097656 21.0625 17.917969 20.183594 17.476562 18.800781 C 17.195312 17.917969 17.550781 17.46875 17.789062 17.28125 C 17.808594 17.265625 17.835938 17.25 17.859375 17.238281 C 17.710938 16.574219 17.890625 15.851562 18.40625 15.335938 C 19.210938 14.535156 20.511719 14.535156 21.3125 15.335938 C 22.113281 16.136719 22.113281 17.4375 21.3125 18.242188 C 20.886719 18.667969 20.316406 18.859375 19.757812 18.832031 C 19.777344 18.871094 20.222656 20.34375 20.222656 20.34375 L 24.539062 16.191406 L 20.78125 12.433594 L 14.371094 18.605469 L 17.703125 21.9375 " fill-opacity="1" fill-rule="nonzero"/></g><g clip-path="url(#abc8fbb370)"><path fill="#f15555" d="M 19.875 20.675781 L 19.40625 19.089844 C 19.363281 18.984375 19.308594 18.863281 19.242188 18.738281 C 19.027344 18.3125 18.722656 17.835938 18.523438 17.683594 C 18.394531 17.578125 18.144531 17.542969 18.050781 17.617188 C 18.019531 17.644531 17.984375 17.679688 17.953125 17.714844 C 17.949219 17.722656 17.945312 17.726562 17.941406 17.730469 C 17.929688 17.75 17.914062 17.769531 17.902344 17.789062 C 17.898438 17.800781 17.890625 17.8125 17.886719 17.820312 C 17.875 17.839844 17.867188 17.863281 17.855469 17.882812 C 17.851562 17.898438 17.84375 17.914062 17.839844 17.933594 C 17.832031 17.953125 17.828125 17.972656 17.820312 17.996094 C 17.816406 18.015625 17.8125 18.039062 17.8125 18.0625 C 17.808594 18.085938 17.804688 18.105469 17.800781 18.128906 C 17.800781 18.15625 17.800781 18.1875 17.800781 18.21875 C 17.800781 18.242188 17.800781 18.261719 17.804688 18.285156 C 17.804688 18.324219 17.8125 18.363281 17.820312 18.40625 C 17.824219 18.425781 17.824219 18.445312 17.828125 18.464844 C 17.84375 18.53125 17.859375 18.597656 17.882812 18.671875 C 18.355469 20.15625 18.542969 21.113281 18.175781 21.925781 C 18.132812 22.015625 18.105469 22.082031 18.082031 22.132812 C 18.078125 22.136719 18.078125 22.136719 18.078125 22.136719 C 18.054688 22.191406 18.039062 22.230469 18.027344 22.261719 C 18.027344 22.261719 18.027344 22.265625 18.027344 22.265625 C 18.003906 22.332031 17.996094 22.386719 17.984375 22.488281 L 17.953125 22.695312 L 16.183594 22.488281 C 16.183594 22.839844 16.261719 23.582031 16.792969 24.292969 L 16.835938 24.351562 L 16.835938 25.445312 L 20.363281 25.382812 L 20.15625 25.382812 L 20.15625 24.304688 L 20.179688 24.257812 C 20.191406 24.238281 21.222656 22.21875 21.4375 20.652344 C 21.480469 20.347656 21.515625 19.996094 21.539062 19.707031 L 20.027344 21.183594 L 19.875 20.675781 " fill-opacity="1" fill-rule="nonzero"/></g><path fill="#f15555" d="M 20.261719 16.832031 C 20.355469 16.785156 20.4375 16.765625 20.515625 16.769531 C 20.621094 16.777344 20.726562 16.839844 20.839844 16.957031 C 20.84375 16.957031 20.84375 16.957031 20.84375 16.957031 C 20.851562 16.964844 20.867188 16.984375 20.890625 17.03125 C 20.90625 17.0625 20.917969 17.101562 20.921875 17.144531 C 20.925781 17.191406 20.917969 17.242188 20.902344 17.300781 C 20.890625 17.339844 20.871094 17.375 20.84375 17.417969 Z M 19.988281 17.023438 C 19.988281 17.023438 19.988281 17.023438 19.988281 17.019531 C 19.988281 17.023438 19.988281 17.023438 19.988281 17.023438 Z M 19.542969 16.898438 C 19.464844 16.921875 19.398438 16.9375 19.339844 16.9375 C 19.292969 16.9375 19.242188 16.929688 19.207031 16.914062 C 19.167969 16.894531 19.128906 16.871094 19.089844 16.839844 C 18.992188 16.75 18.941406 16.640625 18.941406 16.503906 C 18.9375 16.394531 18.976562 16.28125 19.058594 16.171875 L 19.703125 16.816406 C 19.644531 16.855469 19.589844 16.882812 19.542969 16.898438 Z M 19.894531 17.796875 C 19.839844 17.757812 19.75 17.746094 19.667969 17.820312 C 19.617188 17.867188 19.609375 17.917969 19.609375 17.949219 C 19.613281 17.984375 19.628906 18.03125 19.683594 18.066406 C 19.824219 18.160156 19.96875 18.210938 20.125 18.210938 C 20.179688 18.210938 20.238281 18.203125 20.300781 18.1875 C 20.476562 18.148438 20.648438 18.0625 20.816406 17.925781 L 20.886719 18 C 20.9375 18.050781 20.992188 18.066406 21.035156 18.058594 C 21.085938 18.050781 21.125 18.035156 21.15625 18.003906 C 21.1875 17.972656 21.207031 17.933594 21.214844 17.878906 C 21.21875 17.824219 21.199219 17.769531 21.15625 17.730469 L 21.082031 17.652344 C 21.203125 17.488281 21.261719 17.328125 21.253906 17.171875 C 21.246094 16.992188 21.1875 16.84375 21.089844 16.726562 C 21.035156 16.664062 20.972656 16.609375 20.898438 16.558594 C 20.820312 16.503906 20.734375 16.464844 20.636719 16.445312 C 20.542969 16.425781 20.4375 16.429688 20.320312 16.453125 C 20.226562 16.476562 20.125 16.519531 20.015625 16.585938 L 19.355469 15.929688 C 19.375 15.921875 19.394531 15.914062 19.414062 15.910156 C 19.476562 15.898438 19.535156 15.898438 19.589844 15.902344 C 19.644531 15.90625 19.691406 15.921875 19.738281 15.945312 C 19.789062 15.972656 19.835938 16 19.875 16.03125 C 19.921875 16.074219 19.96875 16.078125 20.003906 16.074219 C 20.03125 16.074219 20.074219 16.058594 20.109375 16.011719 C 20.132812 15.980469 20.179688 15.898438 20.089844 15.769531 C 19.929688 15.617188 19.753906 15.539062 19.558594 15.539062 C 19.402344 15.542969 19.25 15.589844 19.109375 15.679688 L 19.011719 15.585938 C 18.972656 15.542969 18.917969 15.523438 18.859375 15.53125 C 18.8125 15.535156 18.769531 15.554688 18.742188 15.585938 C 18.707031 15.617188 18.6875 15.660156 18.683594 15.714844 C 18.683594 15.75 18.691406 15.804688 18.742188 15.855469 L 18.824219 15.9375 C 18.761719 16.011719 18.710938 16.09375 18.675781 16.175781 C 18.621094 16.289062 18.59375 16.402344 18.59375 16.515625 C 18.589844 16.625 18.609375 16.734375 18.652344 16.835938 C 18.699219 16.941406 18.765625 17.03125 18.855469 17.105469 C 19.023438 17.238281 19.203125 17.300781 19.414062 17.28125 C 19.585938 17.269531 19.761719 17.195312 19.945312 17.054688 L 20.578125 17.691406 C 20.457031 17.789062 20.339844 17.84375 20.234375 17.859375 C 20.101562 17.878906 19.988281 17.855469 19.894531 17.796875 " fill-opacity="1" fill-rule="nonzero"/><g clip-path="url(#3e41dfcf64)"><path fill="#f15555" d="M 12.851562 20.050781 L 12.625 21.441406 L 16.710938 22.113281 Z M 12.851562 20.050781 " fill-opacity="1" fill-rule="nonzero"/></g></svg>