<svg xmlns="http://www.w3.org/2000/svg" xmlns:xlink="http://www.w3.org/1999/xlink" width="50" zoomAndPan="magnify" viewBox="0 0 37.5 37.499999" height="50" preserveAspectRatio="xMidYMid meet" version="1.0"><defs><clipPath id="9dc9b129c1"><path d="M 0.628906 0.449219 L 36.683594 0.449219 L 36.683594 36.503906 L 0.628906 36.503906 Z M 0.628906 0.449219 " clip-rule="nonzero"/></clipPath><clipPath id="4702d290ee"><path d="M 18.65625 0.449219 C 8.699219 0.449219 0.628906 8.523438 0.628906 18.476562 C 0.628906 28.433594 8.699219 36.503906 18.65625 36.503906 C 28.613281 36.503906 36.683594 28.433594 36.683594 18.476562 C 36.683594 8.523438 28.613281 0.449219 18.65625 0.449219 Z M 18.65625 0.449219 " clip-rule="nonzero"/></clipPath><clipPath id="904e446e3c"><path d="M 16.445312 17.25 L 26.261719 17.25 L 26.261719 25.066406 L 16.445312 25.066406 Z M 16.445312 17.25 " clip-rule="nonzero"/></clipPath><clipPath id="9456b7adda"><path d="M 11.011719 11.742188 L 18 11.742188 L 18 21 L 11.011719 21 Z M 11.011719 11.742188 " clip-rule="nonzero"/></clipPath></defs><g clip-path="url(#9dc9b129c1)"><g clip-path="url(#4702d290ee)"><path fill="#e4f2f3" d="M 0.628906 0.449219 L 36.683594 0.449219 L 36.683594 36.503906 L 0.628906 36.503906 Z M 0.628906 0.449219 " fill-opacity="1" fill-rule="nonzero"/></g></g><g clip-path="url(#904e446e3c)"><path fill="#7d8cc4" d="M 26.261719 17.777344 C 26.261719 17.777344 25.035156 18.597656 24.484375 21.058594 C 23.855469 23.859375 21.660156 25.363281 18.359375 25.1875 C 17.695312 25.15625 17.175781 25.074219 16.863281 25.011719 C 19.164062 20.570312 22.839844 19.078125 23.183594 18.941406 C 18.902344 20.160156 17.109375 22.890625 16.546875 23.976562 C 16.691406 21.597656 17.5625 15.601562 26.261719 17.777344 " fill-opacity="1" fill-rule="nonzero"/></g><g clip-path="url(#9456b7adda)"><path fill="#7d8cc4" d="M 17.121094 19.546875 C 16.976562 18.507812 16.3125 15.78125 13.199219 13.570312 C 13.4375 13.777344 15.984375 16.039062 16.570312 20.292969 C 16.296875 20.253906 15.855469 20.167969 15.308594 20.007812 C 12.589844 19.199219 11.242188 17.355469 11.539062 14.90625 C 11.800781 12.757812 11.042969 11.742188 11.042969 11.742188 C 18.703125 12.480469 17.6875 17.578125 17.121094 19.546875 " fill-opacity="1" fill-rule="nonzero"/></g></svg>