<svg xmlns="http://www.w3.org/2000/svg" xmlns:xlink="http://www.w3.org/1999/xlink" width="50" zoomAndPan="magnify" viewBox="0 0 37.5 37.499999" height="50" preserveAspectRatio="xMidYMid meet" version="1.0"><defs><clipPath id="fa9728c1d1"><path d="M 0.242188 0.695312 L 36.296875 0.695312 L 36.296875 36.75 L 0.242188 36.75 Z M 0.242188 0.695312 " clip-rule="nonzero"/></clipPath><clipPath id="50da31e334"><path d="M 18.269531 0.695312 C 8.3125 0.695312 0.242188 8.765625 0.242188 18.722656 C 0.242188 28.679688 8.3125 36.75 18.269531 36.75 C 28.226562 36.75 36.296875 28.679688 36.296875 18.722656 C 36.296875 8.765625 28.226562 0.695312 18.269531 0.695312 Z M 18.269531 0.695312 " clip-rule="nonzero"/></clipPath><clipPath id="aeb5f4ed47"><path d="M 8.867188 12.691406 L 27 12.691406 L 27 24.535156 L 8.867188 24.535156 Z M 8.867188 12.691406 " clip-rule="nonzero"/></clipPath><clipPath id="9bb5e6068b"><path d="M 22 19 L 27.367188 19 L 27.367188 24.535156 L 22 24.535156 Z M 22 19 " clip-rule="nonzero"/></clipPath></defs><g clip-path="url(#fa9728c1d1)"><g clip-path="url(#50da31e334)"><path fill="#dafdff" d="M 0.242188 0.695312 L 36.296875 0.695312 L 36.296875 36.75 L 0.242188 36.75 Z M 0.242188 0.695312 " fill-opacity="1" fill-rule="nonzero"/></g></g><g clip-path="url(#aeb5f4ed47)"><path fill="#22b2bb" d="M 25.1875 19.417969 C 25.449219 19.417969 25.707031 19.453125 25.949219 19.519531 L 25.949219 17.640625 C 25.949219 17.519531 25.847656 17.421875 25.726562 17.421875 L 24.964844 17.421875 L 24.964844 15.382812 L 25.878906 14.464844 C 26.109375 14.234375 26.109375 13.863281 25.878906 13.632812 C 25.648438 13.398438 25.273438 13.398438 25.042969 13.632812 L 24 14.679688 C 23.980469 14.710938 23.785156 14.832031 23.785156 15.132812 L 23.785156 17.421875 L 22.144531 17.421875 L 21.222656 16.441406 L 21.222656 12.917969 C 21.222656 12.796875 21.125 12.695312 21.003906 12.695312 L 18.359375 12.695312 C 17.253906 12.695312 16.355469 13.59375 16.355469 14.695312 L 16.355469 16.53125 C 16.355469 16.5625 16.367188 16.59375 16.378906 16.621094 L 15.503906 18.070312 L 12.816406 20.449219 L 9.097656 20.449219 C 8.976562 20.449219 8.875 20.546875 8.875 20.667969 C 8.875 20.792969 8.976562 20.890625 9.097656 20.890625 L 9.933594 20.890625 L 9.933594 22.300781 C 9.933594 22.351562 9.949219 22.402344 9.984375 22.445312 L 10.65625 23.222656 C 10.699219 23.273438 10.761719 23.300781 10.824219 23.300781 C 10.875 23.300781 10.929688 23.28125 10.96875 23.246094 C 11.0625 23.167969 11.074219 23.027344 10.992188 22.933594 L 10.375 22.214844 L 10.375 20.890625 L 11.59375 20.890625 L 11.59375 22.300781 C 11.59375 22.351562 11.613281 22.402344 11.644531 22.445312 L 12.320312 23.222656 C 12.359375 23.273438 12.421875 23.300781 12.484375 23.300781 C 12.539062 23.300781 12.589844 23.28125 12.628906 23.246094 C 12.722656 23.167969 12.734375 23.027344 12.652344 22.933594 L 12.035156 22.214844 L 12.035156 20.890625 L 13.253906 20.890625 L 13.253906 22.300781 C 13.253906 22.351562 13.273438 22.402344 13.308594 22.445312 L 13.980469 23.222656 C 14.023438 23.273438 14.085938 23.300781 14.148438 23.300781 C 14.199219 23.300781 14.25 23.28125 14.292969 23.246094 C 14.382812 23.167969 14.394531 23.027344 14.316406 22.933594 L 13.699219 22.214844 L 13.699219 20.890625 L 14.800781 20.890625 C 14.773438 21.0625 14.757812 21.234375 14.757812 21.414062 C 14.757812 23.246094 16.246094 24.738281 18.078125 24.738281 C 19.917969 24.738281 21.414062 23.246094 21.414062 21.414062 L 21.414062 21.378906 C 21.390625 19.5625 19.898438 18.085938 18.078125 18.085938 C 16.570312 18.085938 15.3125 19.085938 14.898438 20.449219 L 13.488281 20.449219 L 15.394531 18.753906 L 15.394531 18.773438 C 16.078125 18.074219 17.03125 17.640625 18.078125 17.640625 C 20.136719 17.640625 21.832031 19.316406 21.855469 21.371094 L 21.855469 21.414062 C 21.855469 21.476562 21.851562 21.539062 21.851562 21.597656 L 22.394531 21.597656 C 22.707031 20.347656 23.839844 19.417969 25.1875 19.417969 Z M 18.082031 19.335938 C 19.226562 19.335938 20.160156 20.265625 20.160156 21.410156 C 20.160156 22.554688 19.226562 23.488281 18.082031 23.488281 C 16.9375 23.488281 16.007812 22.554688 16.007812 21.410156 C 16.007812 20.265625 16.9375 19.335938 18.082031 19.335938 Z M 20.78125 16.308594 L 19.011719 16.308594 L 19.011719 13.136719 L 20.78125 13.136719 Z M 20.78125 16.308594 " fill-opacity="1" fill-rule="nonzero"/></g><path fill="#22b2bb" d="M 25.1875 21.632812 C 24.820312 21.632812 24.523438 21.933594 24.523438 22.300781 C 24.523438 22.667969 24.820312 22.964844 25.1875 22.964844 C 25.554688 22.964844 25.855469 22.667969 25.855469 22.300781 C 25.855469 21.933594 25.554688 21.632812 25.1875 21.632812 Z M 25.1875 21.632812 " fill-opacity="1" fill-rule="nonzero"/><g clip-path="url(#9bb5e6068b)"><path fill="#22b2bb" d="M 25.1875 19.859375 C 23.851562 19.859375 22.75 20.941406 22.75 22.300781 C 22.75 23.644531 23.84375 24.738281 25.1875 24.738281 C 26.535156 24.738281 27.628906 23.644531 27.628906 22.300781 C 27.628906 20.949219 26.542969 19.859375 25.1875 19.859375 Z M 25.1875 23.410156 C 24.578125 23.410156 24.082031 22.910156 24.082031 22.300781 C 24.082031 21.6875 24.578125 21.191406 25.1875 21.191406 C 25.800781 21.191406 26.300781 21.6875 26.300781 22.300781 C 26.300781 22.910156 25.800781 23.410156 25.1875 23.410156 Z M 25.1875 23.410156 " fill-opacity="1" fill-rule="nonzero"/></g><path fill="#22b2bb" d="M 18.082031 23.042969 C 18.984375 23.042969 19.714844 22.3125 19.714844 21.410156 C 19.714844 20.511719 18.984375 19.777344 18.082031 19.777344 C 17.183594 19.777344 16.449219 20.511719 16.449219 21.410156 C 16.449219 22.3125 17.183594 23.042969 18.082031 23.042969 Z M 18.082031 23.042969 " fill-opacity="1" fill-rule="nonzero"/></svg>