<svg xmlns="http://www.w3.org/2000/svg" xmlns:xlink="http://www.w3.org/1999/xlink" width="58" zoomAndPan="magnify" viewBox="0 0 43.5 42.749999" height="57" preserveAspectRatio="xMidYMid meet" version="1.0"><defs><clipPath id="b55e10e054"><path d="M 0.734375 0.175781 L 42.875 0.175781 L 42.875 42.316406 L 0.734375 42.316406 Z M 0.734375 0.175781 " clip-rule="nonzero"/></clipPath><clipPath id="cc26f4bc9e"><path d="M 21.804688 0.175781 C 10.167969 0.175781 0.734375 9.609375 0.734375 21.246094 C 0.734375 32.882812 10.167969 42.316406 21.804688 42.316406 C 33.441406 42.316406 42.875 32.882812 42.875 21.246094 C 42.875 9.609375 33.441406 0.175781 21.804688 0.175781 Z M 21.804688 0.175781 " clip-rule="nonzero"/></clipPath><clipPath id="1a9be39f25"><path d="M 13.929688 13.375 L 29.503906 13.375 L 29.503906 28.945312 L 13.929688 28.945312 Z M 13.929688 13.375 " clip-rule="nonzero"/></clipPath><clipPath id="832652a66e"><path d="M 16 24 L 20 24 L 20 28.945312 L 16 28.945312 Z M 16 24 " clip-rule="nonzero"/></clipPath></defs><g clip-path="url(#b55e10e054)"><g clip-path="url(#cc26f4bc9e)"><path fill="#ecf0ff" d="M 0.734375 0.175781 L 42.875 0.175781 L 42.875 42.316406 L 0.734375 42.316406 Z M 0.734375 0.175781 " fill-opacity="1" fill-rule="nonzero"/></g></g><g clip-path="url(#1a9be39f25)"><path fill="#5166b4" d="M 14.195312 29.121094 L 22.066406 29.121094 C 22.132812 29.117188 22.191406 29.09375 22.242188 29.046875 L 25.390625 26.160156 C 25.449219 26.109375 25.476562 26.046875 25.476562 25.96875 L 25.476562 22.296875 L 26.789062 22.296875 C 26.847656 22.296875 26.902344 22.277344 26.949219 22.242188 L 29.574219 20.222656 C 29.640625 20.167969 29.675781 20.097656 29.675781 20.011719 L 29.675781 14.6875 C 29.675781 14.613281 29.652344 14.550781 29.597656 14.5 C 29.546875 14.449219 29.488281 14.425781 29.414062 14.425781 L 22.855469 14.425781 C 22.78125 14.425781 22.71875 14.449219 22.667969 14.5 L 22.066406 15.117188 L 22.066406 13.636719 C 22.066406 13.609375 22.0625 13.582031 22.054688 13.554688 C 22.011719 13.433594 21.929688 13.375 21.804688 13.375 L 16.367188 13.375 C 16.304688 13.375 16.25 13.394531 16.203125 13.433594 L 14.273438 15.007812 C 14.21875 15.0625 14.191406 15.132812 14.195312 15.210938 L 14.195312 19.933594 C 14.195312 20.007812 14.21875 20.070312 14.269531 20.121094 C 14.320312 20.171875 14.382812 20.199219 14.457031 20.199219 L 15.242188 20.199219 L 14.019531 21.316406 C 13.960938 21.367188 13.933594 21.433594 13.929688 21.507812 L 13.929688 28.855469 C 13.929688 28.929688 13.957031 28.992188 14.007812 29.042969 C 14.058594 29.09375 14.121094 29.121094 14.195312 29.121094 Z M 21.972656 21.246094 L 18.824219 21.246094 L 21.132812 19.148438 L 24.492188 19.148438 Z M 24.953125 25.855469 L 22.328125 28.261719 L 22.328125 21.632812 L 24.953125 19.445312 Z M 24.953125 18.621094 L 22.855469 18.621094 L 22.855469 18.097656 L 24.953125 18.097656 Z M 26.527344 21.773438 L 25.476562 21.773438 L 25.476562 17.835938 C 25.476562 17.761719 25.453125 17.703125 25.402344 17.648438 C 25.347656 17.597656 25.289062 17.574219 25.214844 17.574219 L 22.589844 17.574219 C 22.519531 17.574219 22.457031 17.597656 22.40625 17.648438 C 22.355469 17.703125 22.328125 17.761719 22.328125 17.835938 L 22.328125 18.621094 L 21.015625 18.621094 L 21.015625 17.3125 L 26.527344 17.3125 Z M 29.152344 19.886719 L 27.050781 21.507812 L 27.050781 17.167969 L 29.152344 15.277344 Z M 28.730469 14.949219 L 26.691406 16.785156 L 24.460938 16.785156 L 26.226562 14.949219 Z M 22.957031 14.949219 L 25.492188 14.949219 L 23.730469 16.785156 L 21.125 16.785156 Z M 21.542969 15.640625 L 20.582031 16.601562 C 20.523438 16.648438 20.496094 16.710938 20.492188 16.785156 L 20.492188 18.621094 L 19.96875 18.621094 L 19.992188 15.34375 L 21.542969 14.160156 Z M 21.015625 13.898438 L 19.632812 14.949219 L 17.777344 14.949219 L 19 13.898438 Z M 16.460938 13.898438 L 18.191406 13.898438 L 16.96875 14.949219 L 15.179688 14.949219 Z M 14.71875 19.671875 L 14.71875 15.472656 L 19.457031 15.472656 L 19.441406 18.621094 L 17.082031 18.621094 C 17.011719 18.621094 16.953125 18.644531 16.90625 18.691406 L 15.769531 19.734375 L 15.769531 19.671875 Z M 17.195312 19.148438 L 20.34375 19.148438 L 18.035156 21.246094 L 14.886719 21.246094 Z M 14.457031 21.773438 L 21.804688 21.773438 L 21.804688 28.59375 L 14.457031 28.59375 Z M 14.457031 21.773438 " fill-opacity="1" fill-rule="nonzero"/></g><path fill="#5166b4" d="M 19.96875 22.558594 L 16.292969 22.558594 C 16.222656 22.558594 16.160156 22.585938 16.109375 22.636719 C 16.054688 22.6875 16.03125 22.75 16.03125 22.820312 L 16.03125 23.871094 C 16.03125 23.945312 16.054688 24.003906 16.109375 24.058594 C 16.160156 24.109375 16.222656 24.132812 16.292969 24.132812 L 19.96875 24.132812 C 20.039062 24.132812 20.101562 24.109375 20.152344 24.058594 C 20.203125 24.003906 20.230469 23.945312 20.230469 23.871094 L 20.230469 22.820312 C 20.230469 22.75 20.203125 22.6875 20.152344 22.636719 C 20.101562 22.585938 20.039062 22.558594 19.96875 22.558594 Z M 19.703125 23.609375 L 16.554688 23.609375 L 16.554688 23.082031 L 19.703125 23.082031 Z M 19.703125 23.609375 " fill-opacity="1" fill-rule="nonzero"/><g clip-path="url(#832652a66e)"><path fill="#5166b4" d="M 18.296875 24.71875 C 18.1875 24.625 18.074219 24.625 17.960938 24.71875 L 16.386719 26.03125 C 16.292969 26.109375 16.265625 26.207031 16.308594 26.320312 C 16.351562 26.4375 16.433594 26.496094 16.554688 26.496094 L 17.34375 26.496094 L 17.34375 27.808594 C 17.34375 27.878906 17.367188 27.941406 17.417969 27.992188 C 17.472656 28.042969 17.53125 28.070312 17.605469 28.070312 L 18.65625 28.070312 C 18.726562 28.070312 18.789062 28.042969 18.839844 27.992188 C 18.890625 27.941406 18.917969 27.878906 18.917969 27.808594 L 18.917969 26.496094 L 19.703125 26.496094 C 19.828125 26.496094 19.910156 26.4375 19.953125 26.320312 C 19.992188 26.207031 19.96875 26.109375 19.871094 26.03125 Z M 18.65625 25.96875 C 18.582031 25.96875 18.519531 25.996094 18.46875 26.046875 C 18.417969 26.097656 18.390625 26.160156 18.390625 26.234375 L 18.390625 27.546875 L 17.867188 27.546875 L 17.867188 26.234375 C 17.867188 26.160156 17.84375 26.097656 17.789062 26.046875 C 17.738281 25.996094 17.679688 25.96875 17.605469 25.96875 L 17.28125 25.96875 L 18.128906 25.261719 L 18.980469 25.96875 Z M 18.65625 25.96875 " fill-opacity="1" fill-rule="nonzero"/></g><path fill="#5166b4" d="M 18.390625 17.542969 C 18.464844 17.542969 18.527344 17.519531 18.578125 17.46875 C 18.628906 17.417969 18.65625 17.355469 18.65625 17.28125 L 18.65625 16.230469 C 18.65625 16.160156 18.628906 16.097656 18.578125 16.046875 C 18.527344 15.996094 18.464844 15.96875 18.390625 15.96875 L 15.769531 15.96875 C 15.695312 15.96875 15.632812 15.996094 15.582031 16.046875 C 15.53125 16.097656 15.507812 16.160156 15.507812 16.230469 L 15.507812 17.28125 C 15.507812 17.355469 15.53125 17.417969 15.582031 17.46875 C 15.632812 17.519531 15.695312 17.542969 15.769531 17.542969 Z M 16.03125 16.496094 L 18.128906 16.496094 L 18.128906 17.019531 L 16.03125 17.019531 Z M 16.03125 16.496094 " fill-opacity="1" fill-rule="nonzero"/></svg>