<svg xmlns="http://www.w3.org/2000/svg" xmlns:xlink="http://www.w3.org/1999/xlink" width="49" zoomAndPan="magnify" viewBox="0 0 36.75 37.5" height="50" preserveAspectRatio="xMidYMid meet" version="1.0"><defs><clipPath id="d578ae48af"><path d="M 0.265625 0.449219 L 36.320312 0.449219 L 36.320312 36.503906 L 0.265625 36.503906 Z M 0.265625 0.449219 " clip-rule="nonzero"/></clipPath><clipPath id="78a42421c1"><path d="M 18.292969 0.449219 C 8.335938 0.449219 0.265625 8.523438 0.265625 18.476562 C 0.265625 28.433594 8.335938 36.503906 18.292969 36.503906 C 28.25 36.503906 36.320312 28.433594 36.320312 18.476562 C 36.320312 8.523438 28.25 0.449219 18.292969 0.449219 Z M 18.292969 0.449219 " clip-rule="nonzero"/></clipPath><clipPath id="e84007194f"><path d="M 13.417969 11.742188 L 23.039062 11.742188 L 23.039062 25.066406 L 13.417969 25.066406 Z M 13.417969 11.742188 " clip-rule="nonzero"/></clipPath></defs><g clip-path="url(#d578ae48af)"><g clip-path="url(#78a42421c1)"><path fill="#ecf0ff" d="M 0.265625 0.449219 L 36.320312 0.449219 L 36.320312 36.503906 L 0.265625 36.503906 Z M 0.265625 0.449219 " fill-opacity="1" fill-rule="nonzero"/></g></g><g clip-path="url(#e84007194f)"><path fill="#5166b4" d="M 18.472656 11.851562 C 18.386719 11.742188 18.199219 11.742188 18.113281 11.851562 C 17.921875 12.089844 13.425781 17.726562 13.425781 20.335938 C 13.425781 23.019531 15.609375 25.203125 18.292969 25.203125 C 20.976562 25.203125 23.160156 23.019531 23.160156 20.335938 C 23.160156 17.726562 18.664062 12.089844 18.472656 11.851562 Z M 18.292969 24.738281 C 15.867188 24.738281 13.890625 22.765625 13.890625 20.335938 C 13.890625 18.171875 17.441406 13.46875 18.292969 12.371094 C 19.144531 13.464844 22.695312 18.171875 22.695312 20.335938 C 22.695312 22.765625 20.71875 24.738281 18.292969 24.738281 Z M 18.292969 24.738281 " fill-opacity="1" fill-rule="nonzero"/></g><path fill="#5166b4" d="M 18.292969 22.65625 C 17.015625 22.65625 15.976562 21.617188 15.976562 20.335938 C 15.976562 20.210938 15.871094 20.105469 15.746094 20.105469 C 15.617188 20.105469 15.511719 20.210938 15.511719 20.335938 C 15.511719 21.871094 16.761719 23.117188 18.292969 23.117188 C 18.421875 23.117188 18.523438 23.015625 18.523438 22.886719 C 18.523438 22.757812 18.421875 22.65625 18.292969 22.65625 Z M 18.292969 22.65625 " fill-opacity="1" fill-rule="nonzero"/></svg>