<svg xmlns="http://www.w3.org/2000/svg" xmlns:xlink="http://www.w3.org/1999/xlink" width="50" zoomAndPan="magnify" viewBox="0 0 37.5 36.75" height="49" preserveAspectRatio="xMidYMid meet" version="1.0"><defs><clipPath id="4a4eb6bc14"><path d="M 0.460938 0.261719 L 36.515625 0.261719 L 36.515625 36.316406 L 0.460938 36.316406 Z M 0.460938 0.261719 " clip-rule="nonzero"/></clipPath><clipPath id="2de917b474"><path d="M 18.488281 0.261719 C 8.53125 0.261719 0.460938 8.332031 0.460938 18.289062 C 0.460938 28.246094 8.53125 36.316406 18.488281 36.316406 C 28.445312 36.316406 36.515625 28.246094 36.515625 18.289062 C 36.515625 8.332031 28.445312 0.261719 18.488281 0.261719 Z M 18.488281 0.261719 " clip-rule="nonzero"/></clipPath><clipPath id="754e20d629"><path d="M 14 11.554688 L 23 11.554688 L 23 20 L 14 20 Z M 14 11.554688 " clip-rule="nonzero"/></clipPath><clipPath id="155a406bfb"><path d="M 13.226562 20 L 16 20 L 16 24.875 L 13.226562 24.875 Z M 13.226562 20 " clip-rule="nonzero"/></clipPath><clipPath id="304779d622"><path d="M 21 20 L 23.585938 20 L 23.585938 24.875 L 21 24.875 Z M 21 20 " clip-rule="nonzero"/></clipPath></defs><g clip-path="url(#4a4eb6bc14)"><g clip-path="url(#2de917b474)"><path fill="#f8eeff" d="M 0.460938 0.261719 L 36.515625 0.261719 L 36.515625 36.316406 L 0.460938 36.316406 Z M 0.460938 0.261719 " fill-opacity="1" fill-rule="nonzero"/></g></g><g clip-path="url(#754e20d629)"><path fill="#a955e8" d="M 21.800781 15.839844 C 22.050781 15.839844 22.214844 15.675781 22.214844 15.425781 C 22.214844 15.175781 22.050781 15.011719 21.800781 15.011719 C 21.800781 13.976562 21.304688 13.023438 20.558594 12.441406 L 20.558594 13.355469 C 20.558594 13.601562 20.390625 13.769531 20.144531 13.769531 C 19.894531 13.769531 19.730469 13.601562 19.730469 13.355469 L 19.730469 11.945312 C 18.941406 11.613281 18.03125 11.613281 17.242188 11.945312 L 17.242188 13.355469 C 17.242188 13.601562 17.078125 13.769531 16.828125 13.769531 C 16.582031 13.769531 16.414062 13.601562 16.414062 13.355469 L 16.414062 12.441406 C 15.667969 13.023438 15.171875 13.976562 15.171875 15.011719 C 14.921875 15.011719 14.757812 15.175781 14.757812 15.425781 C 14.757812 15.675781 14.921875 15.839844 15.171875 15.839844 L 15.628906 15.839844 C 15.378906 17.621094 16.746094 19.152344 18.488281 19.152344 C 20.226562 19.152344 21.59375 17.621094 21.34375 15.839844 Z M 18.488281 18.324219 C 17.203125 18.324219 16.207031 17.164062 16.457031 15.839844 L 20.515625 15.839844 C 20.765625 17.164062 19.769531 18.324219 18.488281 18.324219 Z M 18.488281 18.324219 " fill-opacity="1" fill-rule="nonzero"/></g><g clip-path="url(#155a406bfb)"><path fill="#a955e8" d="M 13.265625 24.5 L 13.226562 24.953125 L 14.757812 24.953125 L 14.757812 23.710938 C 14.757812 23.257812 15.128906 22.882812 15.585938 22.882812 L 15.585938 20.851562 C 14.386719 21.683594 13.515625 22.964844 13.265625 24.5 Z M 13.265625 24.5 " fill-opacity="1" fill-rule="nonzero"/></g><path fill="#a955e8" d="M 18.488281 19.984375 C 17.742188 19.984375 17.035156 20.148438 16.414062 20.398438 L 16.414062 22.882812 L 20.558594 22.882812 L 20.558594 20.398438 C 19.9375 20.148438 19.230469 19.984375 18.488281 19.984375 Z M 18.488281 19.984375 " fill-opacity="1" fill-rule="nonzero"/><g clip-path="url(#304779d622)"><path fill="#a955e8" d="M 23.75 24.953125 L 23.664062 24.5 C 23.457031 22.964844 22.589844 21.683594 21.34375 20.851562 L 21.34375 22.882812 C 21.800781 22.882812 22.175781 23.257812 22.175781 23.710938 L 22.175781 24.953125 Z M 23.75 24.953125 " fill-opacity="1" fill-rule="nonzero"/></g></svg>