<svg xmlns="http://www.w3.org/2000/svg" xmlns:xlink="http://www.w3.org/1999/xlink" width="58" zoomAndPan="magnify" viewBox="0 0 43.5 43.499999" height="58" preserveAspectRatio="xMidYMid meet" version="1.0"><defs><clipPath id="5e8060c47e"><path d="M 0.734375 0.402344 L 42.875 0.402344 L 42.875 42.542969 L 0.734375 42.542969 Z M 0.734375 0.402344 " clip-rule="nonzero"/></clipPath><clipPath id="67b1fc60dc"><path d="M 21.804688 0.402344 C 10.167969 0.402344 0.734375 9.835938 0.734375 21.472656 C 0.734375 33.109375 10.167969 42.542969 21.804688 42.542969 C 33.441406 42.542969 42.875 33.109375 42.875 21.472656 C 42.875 9.835938 33.441406 0.402344 21.804688 0.402344 Z M 21.804688 0.402344 " clip-rule="nonzero"/></clipPath><clipPath id="067dede87b"><path d="M 16 22 L 27 22 L 27 28.511719 L 16 28.511719 Z M 16 22 " clip-rule="nonzero"/></clipPath><clipPath id="475a896509"><path d="M 13.796875 17 L 20 17 L 20 23 L 13.796875 23 Z M 13.796875 17 " clip-rule="nonzero"/></clipPath><clipPath id="3425c55a3d"><path d="M 18 14.425781 L 25 14.425781 L 25 18 L 18 18 Z M 18 14.425781 " clip-rule="nonzero"/></clipPath></defs><g clip-path="url(#5e8060c47e)"><g clip-path="url(#67b1fc60dc)"><path fill="#dafdff" d="M 0.734375 0.402344 L 42.875 0.402344 L 42.875 42.542969 L 0.734375 42.542969 Z M 0.734375 0.402344 " fill-opacity="1" fill-rule="nonzero"/></g></g><path fill="#22b2bb" d="M 21.671875 18.511719 C 20.421875 18.511719 19.402344 19.527344 19.402344 20.777344 C 19.402344 21.277344 19.5625 21.742188 19.867188 22.132812 C 20.511719 22.953125 21.441406 24.902344 21.453125 24.921875 C 21.492188 25.003906 21.574219 25.058594 21.667969 25.058594 C 21.667969 25.058594 21.671875 25.058594 21.671875 25.058594 C 21.761719 25.058594 21.847656 25.007812 21.886719 24.925781 C 21.898438 24.90625 22.917969 22.886719 23.441406 22.222656 C 23.761719 21.8125 23.9375 21.296875 23.9375 20.777344 C 23.9375 19.527344 22.921875 18.511719 21.671875 18.511719 Z M 23.058594 21.921875 C 22.65625 22.433594 22.015625 23.628906 21.675781 24.277344 C 21.355469 23.636719 20.738281 22.457031 20.25 21.832031 C 20.015625 21.53125 19.890625 21.167969 19.890625 20.777344 C 19.890625 19.796875 20.6875 18.996094 21.671875 18.996094 C 22.652344 18.996094 23.453125 19.796875 23.453125 20.777344 C 23.453125 21.191406 23.3125 21.597656 23.058594 21.921875 Z M 23.058594 21.921875 " fill-opacity="1" fill-rule="nonzero"/><path fill="#22b2bb" d="M 21.6875 19.960938 C 21.203125 19.960938 20.8125 20.355469 20.8125 20.835938 C 20.8125 21.320312 21.203125 21.710938 21.6875 21.710938 C 22.167969 21.710938 22.5625 21.320312 22.5625 20.835938 C 22.5625 20.355469 22.167969 19.960938 21.6875 19.960938 Z M 21.6875 21.226562 C 21.472656 21.226562 21.296875 21.050781 21.296875 20.835938 C 21.296875 20.621094 21.472656 20.449219 21.6875 20.449219 C 21.902344 20.449219 22.074219 20.621094 22.074219 20.835938 C 22.074219 21.050781 21.902344 21.226562 21.6875 21.226562 Z M 21.6875 21.226562 " fill-opacity="1" fill-rule="nonzero"/><g clip-path="url(#067dede87b)"><path fill="#22b2bb" d="M 27 23.890625 C 27 23.882812 27 23.871094 27 23.863281 C 27 23.863281 27 23.859375 27 23.855469 C 26.996094 23.847656 26.996094 23.839844 26.992188 23.832031 C 26.992188 23.832031 26.992188 23.828125 26.992188 23.828125 C 26.988281 23.816406 26.984375 23.808594 26.980469 23.800781 C 26.980469 23.796875 26.980469 23.796875 26.980469 23.796875 C 26.976562 23.789062 26.972656 23.78125 26.96875 23.773438 C 26.96875 23.769531 26.964844 23.769531 26.964844 23.765625 C 26.960938 23.761719 26.957031 23.753906 26.949219 23.746094 C 26.949219 23.746094 26.949219 23.742188 26.945312 23.742188 C 26.941406 23.734375 26.933594 23.726562 26.929688 23.722656 C 26.925781 23.71875 26.925781 23.71875 26.921875 23.714844 C 26.917969 23.710938 26.910156 23.707031 26.90625 23.703125 C 26.902344 23.699219 26.902344 23.699219 26.898438 23.699219 C 26.890625 23.691406 26.882812 23.6875 26.875 23.679688 C 26.875 23.679688 26.871094 23.679688 26.871094 23.679688 L 24.480469 22.410156 C 24.363281 22.34375 24.214844 22.390625 24.152344 22.507812 C 24.089844 22.625 24.136719 22.773438 24.253906 22.835938 L 26.25 23.898438 L 21.691406 26.414062 L 17.132812 23.898438 L 19.191406 22.800781 C 19.308594 22.738281 19.355469 22.59375 19.292969 22.472656 C 19.230469 22.355469 19.082031 22.3125 18.964844 22.375 L 16.507812 23.679688 C 16.5 23.6875 16.488281 23.691406 16.480469 23.699219 C 16.480469 23.699219 16.476562 23.699219 16.476562 23.703125 C 16.46875 23.707031 16.464844 23.710938 16.457031 23.714844 C 16.457031 23.71875 16.453125 23.71875 16.453125 23.722656 C 16.445312 23.726562 16.4375 23.734375 16.433594 23.742188 C 16.433594 23.742188 16.429688 23.746094 16.429688 23.746094 C 16.425781 23.753906 16.421875 23.757812 16.417969 23.765625 C 16.414062 23.769531 16.414062 23.769531 16.414062 23.773438 C 16.40625 23.78125 16.402344 23.789062 16.398438 23.796875 C 16.398438 23.796875 16.398438 23.796875 16.398438 23.800781 C 16.394531 23.808594 16.390625 23.816406 16.390625 23.828125 C 16.386719 23.828125 16.386719 23.832031 16.386719 23.832031 C 16.386719 23.839844 16.382812 23.847656 16.382812 23.855469 C 16.382812 23.859375 16.382812 23.863281 16.382812 23.863281 C 16.378906 23.871094 16.378906 23.882812 16.378906 23.890625 C 16.378906 23.890625 16.378906 23.890625 16.378906 23.894531 L 16.378906 25.511719 C 16.378906 25.597656 16.425781 25.679688 16.503906 25.722656 L 21.574219 28.484375 C 21.609375 28.503906 21.648438 28.515625 21.691406 28.515625 C 21.730469 28.515625 21.769531 28.503906 21.804688 28.484375 L 26.875 25.722656 C 26.953125 25.679688 27 25.597656 27 25.511719 L 27 23.894531 C 27 23.894531 27 23.890625 27 23.890625 Z M 21.691406 27.996094 L 16.863281 25.367188 L 16.863281 24.308594 L 21.574219 26.902344 C 21.609375 26.921875 21.648438 26.933594 21.691406 26.933594 C 21.730469 26.933594 21.769531 26.921875 21.808594 26.902344 L 26.515625 24.308594 L 26.515625 25.367188 Z M 21.691406 27.996094 " fill-opacity="1" fill-rule="nonzero"/></g><g clip-path="url(#475a896509)"><path fill="#22b2bb" d="M 17.238281 22.355469 C 17.277344 22.355469 17.316406 22.347656 17.351562 22.328125 L 18.796875 21.558594 C 18.914062 21.496094 18.960938 21.347656 18.898438 21.230469 C 18.835938 21.113281 18.6875 21.066406 18.570312 21.128906 L 17.238281 21.839844 L 14.296875 20.273438 L 14.296875 19.746094 L 17.125 21.253906 C 17.160156 21.273438 17.199219 21.28125 17.238281 21.28125 C 17.277344 21.28125 17.316406 21.273438 17.351562 21.253906 L 18.796875 20.484375 C 18.914062 20.421875 18.960938 20.273438 18.898438 20.15625 C 18.835938 20.039062 18.6875 19.992188 18.570312 20.054688 L 17.238281 20.765625 L 14.570312 19.34375 L 17.238281 17.921875 L 19.023438 18.871094 C 19.140625 18.933594 19.289062 18.890625 19.351562 18.773438 C 19.414062 18.652344 19.371094 18.507812 19.25 18.445312 L 17.351562 17.433594 C 17.28125 17.394531 17.195312 17.394531 17.125 17.433594 L 13.9375 19.128906 C 13.929688 19.132812 13.921875 19.140625 13.914062 19.144531 C 13.910156 19.144531 13.910156 19.148438 13.90625 19.148438 C 13.902344 19.152344 13.894531 19.160156 13.890625 19.164062 C 13.886719 19.164062 13.886719 19.167969 13.882812 19.167969 C 13.875 19.175781 13.871094 19.183594 13.863281 19.191406 C 13.863281 19.191406 13.863281 19.191406 13.859375 19.195312 C 13.855469 19.199219 13.851562 19.207031 13.847656 19.214844 C 13.84375 19.21875 13.84375 19.21875 13.84375 19.222656 C 13.839844 19.230469 13.835938 19.238281 13.832031 19.246094 C 13.832031 19.246094 13.828125 19.246094 13.828125 19.246094 C 13.824219 19.257812 13.824219 19.265625 13.820312 19.277344 C 13.820312 19.277344 13.820312 19.28125 13.816406 19.28125 C 13.816406 19.289062 13.816406 19.296875 13.8125 19.304688 C 13.8125 19.308594 13.8125 19.308594 13.8125 19.3125 C 13.8125 19.324219 13.808594 19.332031 13.808594 19.34375 L 13.808594 20.417969 C 13.808594 20.507812 13.859375 20.589844 13.9375 20.632812 L 17.125 22.328125 C 17.160156 22.347656 17.199219 22.355469 17.238281 22.355469 Z M 17.238281 22.355469 " fill-opacity="1" fill-rule="nonzero"/></g><path fill="#22b2bb" d="M 29.789062 19.3125 C 29.789062 19.308594 29.785156 19.308594 29.785156 19.304688 C 29.785156 19.296875 29.785156 19.289062 29.78125 19.28125 C 29.78125 19.28125 29.78125 19.277344 29.78125 19.277344 C 29.777344 19.265625 29.773438 19.257812 29.769531 19.246094 C 29.765625 19.238281 29.761719 19.230469 29.757812 19.222656 C 29.753906 19.21875 29.753906 19.214844 29.753906 19.214844 C 29.75 19.207031 29.742188 19.199219 29.738281 19.195312 C 29.738281 19.191406 29.738281 19.191406 29.734375 19.191406 C 29.730469 19.183594 29.722656 19.175781 29.714844 19.167969 C 29.714844 19.167969 29.710938 19.164062 29.710938 19.164062 C 29.707031 19.160156 29.699219 19.152344 29.691406 19.148438 C 29.691406 19.148438 29.6875 19.144531 29.6875 19.144531 C 29.679688 19.140625 29.671875 19.132812 29.660156 19.128906 L 26.476562 17.433594 C 26.402344 17.394531 26.316406 17.394531 26.246094 17.433594 L 24.132812 18.558594 C 24.015625 18.621094 23.96875 18.769531 24.03125 18.886719 C 24.09375 19.003906 24.242188 19.050781 24.359375 18.988281 L 26.359375 17.921875 L 29.03125 19.34375 L 26.359375 20.765625 L 24.875 19.972656 C 24.757812 19.910156 24.609375 19.957031 24.546875 20.074219 C 24.484375 20.191406 24.53125 20.339844 24.648438 20.402344 L 26.246094 21.253906 C 26.28125 21.273438 26.320312 21.28125 26.359375 21.28125 C 26.398438 21.28125 26.4375 21.273438 26.476562 21.253906 L 29.304688 19.746094 L 29.304688 20.273438 L 26.359375 21.839844 L 24.941406 21.082031 C 24.824219 21.019531 24.675781 21.066406 24.613281 21.183594 C 24.550781 21.300781 24.59375 21.449219 24.714844 21.511719 L 26.246094 22.328125 C 26.28125 22.347656 26.320312 22.355469 26.359375 22.355469 C 26.398438 22.355469 26.4375 22.347656 26.476562 22.328125 L 29.660156 20.632812 C 29.742188 20.589844 29.789062 20.507812 29.789062 20.417969 L 29.789062 19.34375 C 29.789062 19.332031 29.789062 19.324219 29.789062 19.3125 Z M 29.789062 19.3125 " fill-opacity="1" fill-rule="nonzero"/><g clip-path="url(#3425c55a3d)"><path fill="#22b2bb" d="M 18.964844 17.382812 L 19.972656 17.921875 C 20.007812 17.941406 20.046875 17.949219 20.085938 17.949219 C 20.171875 17.949219 20.257812 17.902344 20.300781 17.820312 C 20.363281 17.703125 20.316406 17.554688 20.199219 17.492188 L 19.320312 17.023438 L 19.320312 16.472656 L 21.574219 17.675781 C 21.613281 17.691406 21.652344 17.703125 21.691406 17.703125 C 21.730469 17.703125 21.769531 17.691406 21.804688 17.675781 L 24.058594 16.472656 L 24.058594 17.023438 L 23.140625 17.511719 C 23.023438 17.574219 22.980469 17.722656 23.042969 17.839844 C 23.085938 17.921875 23.167969 17.96875 23.257812 17.96875 C 23.296875 17.96875 23.335938 17.960938 23.371094 17.941406 L 24.417969 17.382812 C 24.496094 17.34375 24.546875 17.261719 24.546875 17.171875 L 24.546875 16.070312 C 24.546875 16.058594 24.542969 16.050781 24.542969 16.039062 C 24.542969 16.035156 24.542969 16.035156 24.542969 16.03125 C 24.539062 16.023438 24.539062 16.015625 24.539062 16.007812 C 24.535156 16.003906 24.535156 16.003906 24.535156 16 C 24.53125 15.992188 24.53125 15.980469 24.527344 15.972656 C 24.527344 15.972656 24.523438 15.972656 24.523438 15.972656 C 24.519531 15.964844 24.515625 15.957031 24.511719 15.945312 C 24.511719 15.945312 24.511719 15.941406 24.507812 15.941406 C 24.503906 15.933594 24.5 15.925781 24.496094 15.921875 C 24.492188 15.917969 24.492188 15.917969 24.492188 15.917969 C 24.484375 15.910156 24.480469 15.902344 24.472656 15.894531 C 24.46875 15.894531 24.46875 15.890625 24.464844 15.890625 C 24.460938 15.886719 24.453125 15.878906 24.449219 15.875 C 24.445312 15.875 24.445312 15.871094 24.441406 15.871094 C 24.433594 15.863281 24.425781 15.859375 24.417969 15.855469 L 21.804688 14.464844 C 21.734375 14.425781 21.648438 14.425781 21.574219 14.464844 L 18.964844 15.855469 C 18.953125 15.859375 18.945312 15.863281 18.9375 15.871094 C 18.9375 15.871094 18.933594 15.875 18.933594 15.875 C 18.925781 15.878906 18.917969 15.886719 18.914062 15.890625 C 18.914062 15.890625 18.910156 15.894531 18.910156 15.894531 C 18.902344 15.902344 18.894531 15.910156 18.890625 15.917969 C 18.886719 15.917969 18.886719 15.917969 18.886719 15.921875 C 18.882812 15.925781 18.875 15.933594 18.871094 15.941406 C 18.871094 15.941406 18.871094 15.945312 18.867188 15.945312 C 18.863281 15.957031 18.859375 15.964844 18.855469 15.972656 C 18.851562 15.980469 18.847656 15.992188 18.84375 16 C 18.84375 16.003906 18.84375 16.003906 18.84375 16.007812 C 18.839844 16.015625 18.839844 16.023438 18.839844 16.03125 C 18.839844 16.035156 18.835938 16.035156 18.835938 16.039062 C 18.835938 16.050781 18.835938 16.058594 18.835938 16.070312 L 18.835938 17.171875 C 18.835938 17.261719 18.882812 17.34375 18.964844 17.382812 Z M 21.691406 14.953125 L 23.785156 16.070312 L 21.691406 17.183594 L 19.59375 16.070312 Z M 21.691406 14.953125 " fill-opacity="1" fill-rule="nonzero"/></g></svg>