<svg xmlns="http://www.w3.org/2000/svg" xmlns:xlink="http://www.w3.org/1999/xlink" width="58" zoomAndPan="magnify" viewBox="0 0 43.5 42.749999" height="57" preserveAspectRatio="xMidYMid meet" version="1.0"><defs><clipPath id="f56e255f75"><path d="M 0.128906 0.175781 L 42.269531 0.175781 L 42.269531 42.316406 L 0.128906 42.316406 Z M 0.128906 0.175781 " clip-rule="nonzero"/></clipPath><clipPath id="d6bd005527"><path d="M 21.199219 0.175781 C 9.5625 0.175781 0.128906 9.609375 0.128906 21.246094 C 0.128906 32.882812 9.5625 42.316406 21.199219 42.316406 C 32.835938 42.316406 42.269531 32.882812 42.269531 21.246094 C 42.269531 9.609375 32.835938 0.175781 21.199219 0.175781 Z M 21.199219 0.175781 " clip-rule="nonzero"/></clipPath><clipPath id="b2520d58f7"><path d="M 16 13.375 L 28.3125 13.375 L 28.3125 28.945312 L 16 28.945312 Z M 16 13.375 " clip-rule="nonzero"/></clipPath><clipPath id="824033313e"><path d="M 14.222656 15 L 19 15 L 19 17 L 14.222656 17 Z M 14.222656 15 " clip-rule="nonzero"/></clipPath><clipPath id="020813f1b4"><path d="M 14.222656 17 L 19 17 L 19 20 L 14.222656 20 Z M 14.222656 17 " clip-rule="nonzero"/></clipPath><clipPath id="6f776f7181"><path d="M 14.222656 20 L 19 20 L 19 23 L 14.222656 23 Z M 14.222656 20 " clip-rule="nonzero"/></clipPath><clipPath id="293c5d3569"><path d="M 14.222656 23 L 19 23 L 19 25 L 14.222656 25 Z M 14.222656 23 " clip-rule="nonzero"/></clipPath><clipPath id="cfe5dff269"><path d="M 14.222656 25 L 19 25 L 19 28 L 14.222656 28 Z M 14.222656 25 " clip-rule="nonzero"/></clipPath></defs><g clip-path="url(#f56e255f75)"><g clip-path="url(#d6bd005527)"><path fill="#e4f2f3" d="M 0.128906 0.175781 L 42.269531 0.175781 L 42.269531 42.316406 L 0.128906 42.316406 Z M 0.128906 0.175781 " fill-opacity="1" fill-rule="nonzero"/></g></g><g clip-path="url(#b2520d58f7)"><path fill="#7d8cc4" d="M 27.480469 29.121094 L 16.871094 29.121094 C 16.484375 29.121094 16.171875 28.804688 16.171875 28.425781 L 16.171875 27.082031 C 16.171875 26.839844 16.539062 26.839844 16.539062 27.082031 L 16.539062 28.425781 C 16.539062 28.601562 16.6875 28.75 16.871094 28.75 L 27.480469 28.75 C 27.664062 28.75 27.800781 28.601562 27.800781 28.425781 L 27.800781 14.066406 C 27.800781 13.890625 27.664062 13.742188 27.480469 13.742188 L 16.871094 13.742188 C 16.6875 13.742188 16.539062 13.890625 16.539062 14.066406 L 16.539062 15.414062 C 16.539062 15.652344 16.171875 15.652344 16.171875 15.414062 L 16.171875 14.066406 C 16.171875 13.6875 16.484375 13.375 16.871094 13.375 L 27.480469 13.375 C 27.867188 13.375 28.171875 13.6875 28.171875 14.066406 L 28.171875 28.425781 C 28.171875 28.804688 27.867188 29.121094 27.480469 29.121094 Z M 16.355469 26.085938 C 16.253906 26.085938 16.171875 26 16.171875 25.898438 L 16.171875 24.460938 C 16.171875 24.210938 16.539062 24.210938 16.539062 24.460938 L 16.539062 25.898438 C 16.539062 26 16.457031 26.085938 16.355469 26.085938 Z M 16.355469 23.464844 C 16.253906 23.464844 16.171875 23.382812 16.171875 23.28125 L 16.171875 21.832031 C 16.171875 21.59375 16.539062 21.59375 16.539062 21.832031 L 16.539062 23.28125 C 16.539062 23.382812 16.457031 23.464844 16.355469 23.464844 Z M 16.355469 20.835938 C 16.253906 20.835938 16.171875 20.753906 16.171875 20.652344 L 16.171875 19.214844 C 16.171875 18.972656 16.539062 18.972656 16.539062 19.214844 L 16.539062 20.652344 C 16.539062 20.753906 16.457031 20.835938 16.355469 20.835938 Z M 16.355469 18.21875 C 16.253906 18.21875 16.171875 18.132812 16.171875 18.03125 L 16.171875 16.585938 C 16.171875 16.34375 16.539062 16.34375 16.539062 16.585938 L 16.539062 18.03125 C 16.539062 18.132812 16.457031 18.21875 16.355469 18.21875 Z M 16.355469 18.21875 " fill-opacity="1" fill-rule="evenodd"/></g><g clip-path="url(#824033313e)"><path fill="#7d8cc4" d="M 17.480469 16.777344 L 15.238281 16.777344 C 14.226562 16.777344 14.226562 15.230469 15.238281 15.230469 L 17.480469 15.230469 C 18.496094 15.230469 18.496094 16.777344 17.480469 16.777344 Z M 15.238281 15.597656 C 14.703125 15.597656 14.703125 16.410156 15.238281 16.410156 L 17.480469 16.410156 C 18.007812 16.410156 18.007812 15.597656 17.480469 15.597656 Z M 15.238281 15.597656 " fill-opacity="1" fill-rule="evenodd"/></g><g clip-path="url(#020813f1b4)"><path fill="#7d8cc4" d="M 17.480469 19.398438 L 15.238281 19.398438 C 14.226562 19.398438 14.226562 17.847656 15.238281 17.847656 L 17.480469 17.847656 C 18.496094 17.847656 18.496094 19.398438 17.480469 19.398438 Z M 15.238281 18.21875 C 14.703125 18.21875 14.703125 19.027344 15.238281 19.027344 L 17.480469 19.027344 C 18.007812 19.027344 18.007812 18.21875 17.480469 18.21875 Z M 15.238281 18.21875 " fill-opacity="1" fill-rule="evenodd"/></g><g clip-path="url(#6f776f7181)"><path fill="#7d8cc4" d="M 17.480469 22.015625 L 15.238281 22.015625 C 14.226562 22.015625 14.226562 20.46875 15.238281 20.46875 L 17.480469 20.46875 C 18.496094 20.46875 18.496094 22.015625 17.480469 22.015625 Z M 15.238281 20.835938 C 14.703125 20.835938 14.703125 21.648438 15.238281 21.648438 L 17.480469 21.648438 C 18.015625 21.648438 18.007812 20.835938 17.480469 20.835938 Z M 15.238281 20.835938 " fill-opacity="1" fill-rule="evenodd"/></g><g clip-path="url(#293c5d3569)"><path fill="#7d8cc4" d="M 17.480469 24.644531 L 15.238281 24.644531 C 14.226562 24.644531 14.226562 23.097656 15.238281 23.097656 L 17.480469 23.097656 C 18.496094 23.097656 18.496094 24.644531 17.480469 24.644531 Z M 15.238281 23.464844 C 14.703125 23.464844 14.703125 24.277344 15.238281 24.277344 L 17.480469 24.277344 C 18.007812 24.277344 18.015625 23.464844 17.480469 23.464844 Z M 15.238281 23.464844 " fill-opacity="1" fill-rule="evenodd"/></g><g clip-path="url(#cfe5dff269)"><path fill="#7d8cc4" d="M 17.480469 27.265625 L 15.238281 27.265625 C 14.226562 27.265625 14.226562 25.714844 15.238281 25.714844 L 17.480469 25.714844 C 18.496094 25.714844 18.496094 27.265625 17.480469 27.265625 Z M 15.238281 26.085938 C 14.703125 26.085938 14.703125 26.898438 15.238281 26.898438 L 17.480469 26.898438 C 18.007812 26.898438 18.007812 26.085938 17.480469 26.085938 Z M 15.238281 26.085938 " fill-opacity="1" fill-rule="evenodd"/></g><path fill="#7d8cc4" d="M 26.261719 20.570312 L 19.84375 20.570312 C 19.742188 20.570312 19.65625 20.484375 19.65625 20.382812 L 19.65625 15.144531 C 19.65625 15.042969 19.742188 14.960938 19.84375 14.960938 L 26.261719 14.960938 C 26.363281 14.960938 26.445312 15.042969 26.445312 15.144531 L 26.445312 20.382812 C 26.445312 20.484375 26.363281 20.570312 26.261719 20.570312 Z M 20.027344 20.199219 L 26.078125 20.199219 L 26.078125 15.328125 L 20.027344 15.328125 Z M 20.027344 20.199219 " fill-opacity="1" fill-rule="evenodd"/><path fill="#7d8cc4" d="M 22.996094 19.242188 C 22.128906 19.242188 21.878906 18.335938 22.242188 18.28125 C 22.507812 18.246094 22.378906 18.566406 22.609375 18.761719 C 22.820312 18.9375 23.550781 18.964844 23.550781 18.382812 C 23.550781 17.710938 22.636719 18.105469 22.277344 17.460938 C 22.019531 16.980469 22.257812 16.207031 23.097656 16.207031 C 23.964844 16.195312 24.214844 17.109375 23.863281 17.164062 C 23.496094 17.210938 23.84375 16.574219 23.097656 16.574219 C 22.40625 16.566406 22.324219 17.453125 23.070312 17.535156 C 24.269531 17.671875 24.167969 19.242188 22.996094 19.242188 Z M 22.996094 19.242188 " fill-opacity="1" fill-rule="evenodd"/><path fill="#7d8cc4" d="M 23.050781 19.703125 C 22.804688 19.703125 22.867188 19.351562 22.867188 19.054688 C 22.867188 18.808594 23.238281 18.808594 23.238281 19.054688 C 23.238281 19.351562 23.300781 19.703125 23.050781 19.703125 Z M 23.050781 16.574219 C 22.8125 16.574219 22.867188 16.261719 22.867188 16.011719 C 22.867188 15.761719 23.238281 15.761719 23.238281 16.011719 C 23.238281 16.261719 23.292969 16.574219 23.050781 16.574219 Z M 23.050781 16.574219 " fill-opacity="1" fill-rule="evenodd"/><path fill="#7d8cc4" d="M 26.234375 22.609375 L 19.445312 22.609375 C 19.195312 22.609375 19.195312 22.238281 19.445312 22.238281 L 26.234375 22.238281 C 26.484375 22.238281 26.484375 22.609375 26.234375 22.609375 Z M 26.234375 22.609375 " fill-opacity="1" fill-rule="evenodd"/><path fill="#7d8cc4" d="M 26.234375 25.070312 L 19.445312 25.070312 C 19.195312 25.070312 19.195312 24.703125 19.445312 24.703125 L 26.234375 24.703125 C 26.484375 24.703125 26.484375 25.070312 26.234375 25.070312 Z M 26.234375 25.070312 " fill-opacity="1" fill-rule="evenodd"/><path fill="#7d8cc4" d="M 26.234375 27.53125 L 19.445312 27.53125 C 19.195312 27.53125 19.195312 27.164062 19.445312 27.164062 L 26.234375 27.164062 C 26.484375 27.164062 26.484375 27.53125 26.234375 27.53125 Z M 26.234375 27.53125 " fill-opacity="1" fill-rule="evenodd"/></svg>