<svg xmlns="http://www.w3.org/2000/svg" xmlns:xlink="http://www.w3.org/1999/xlink" width="414" zoomAndPan="magnify" viewBox="0 0 310.5 310.499999" height="414" preserveAspectRatio="xMidYMid meet" version="1.0"><defs><clipPath id="9d08916cec"><path d="M 0 0 L 310 0 L 310 310 L 0 310 Z M 0 0 " clip-rule="nonzero"/></clipPath><clipPath id="0ff98595f6"><path d="M 155 0 C 69.394531 0 0 69.394531 0 155 C 0 240.605469 69.394531 310 155 310 C 240.605469 310 310 240.605469 310 155 C 310 69.394531 240.605469 0 155 0 Z M 155 0 " clip-rule="nonzero"/></clipPath><clipPath id="03e3cf4f43"><path d="M 79 64.40625 L 235 64.40625 L 235 230 L 79 230 Z M 79 64.40625 " clip-rule="nonzero"/></clipPath></defs><g clip-path="url(#9d08916cec)"><g clip-path="url(#0ff98595f6)"><path fill="#9dcd5a" d="M 0 0 L 310 0 L 310 310 L 0 310 Z M 0 0 " fill-opacity="1" fill-rule="nonzero"/></g></g><g clip-path="url(#03e3cf4f43)"><path fill="#ffffff" d="M 119.265625 187.265625 L 109.144531 162.511719 L 130.78125 153.6875 C 131.886719 153.234375 132.988281 153.070312 134.1875 153.265625 L 154.855469 156.058594 C 156.542969 156.316406 157.9375 157.386719 158.585938 158.945312 C 160.046875 162.125 157.027344 165.953125 153.621094 165.335938 C 153.621094 165.335938 137.207031 163.128906 137.207031 163.128906 C 136.265625 163 135.355469 163.679688 135.257812 164.621094 C 135.128906 165.5625 135.8125 166.472656 136.75 166.570312 L 153.136719 168.773438 C 155.957031 169.195312 158.878906 168.027344 160.664062 165.757812 L 203.777344 155.503906 C 205.757812 155.019531 207.898438 156.121094 208.613281 157.972656 C 209.457031 160.046875 208.515625 162.414062 206.472656 163.324219 L 160.628906 184.085938 C 156.996094 185.710938 153.003906 186.359375 149.015625 185.9375 L 132.890625 184.183594 C 129.679688 183.828125 126.371094 184.28125 123.386719 185.515625 Z M 102.363281 159.5625 L 98.308594 161.214844 C 97.496094 161.539062 97.007812 162.578125 97.398438 163.390625 C 97.398438 163.390625 110.050781 194.371094 110.050781 194.371094 C 110.34375 195.183594 111.414062 195.667969 112.226562 195.28125 C 112.226562 195.28125 116.28125 193.625 116.28125 193.625 C 117.125 193.300781 117.546875 192.261719 117.1875 191.453125 C 117.1875 191.453125 104.535156 160.46875 104.535156 160.46875 C 104.179688 159.625 103.207031 159.238281 102.363281 159.5625 Z M 230.542969 127.863281 C 222.207031 100.320312 198.199219 78.617188 169.777344 73.101562 L 170.65625 64.40625 L 145.511719 77.414062 L 167.703125 95 L 168.609375 85.6875 C 222.433594 95.808594 243.035156 162.773438 204.945312 202.0625 C 180.9375 227.789062 137.5625 230.871094 110.117188 208.648438 C 63.269531 172.179688 77.996094 97.757812 134.835938 80.820312 C 62.390625 101.519531 60.769531 201.347656 131.625 225.90625 C 192.328125 245.566406 249.199219 188.757812 230.542969 127.863281 Z M 142.65625 116.152344 C 147.230469 119.300781 152.777344 119.882812 157.449219 118.066406 C 156.476562 116.445312 154.921875 114.335938 152.617188 112.324219 C 149.242188 109.371094 145.769531 107.976562 143.628906 107.296875 C 145.542969 107.425781 148.5625 107.847656 151.933594 109.402344 C 155.472656 111.027344 157.871094 113.199219 159.234375 114.628906 C 159.074219 109.46875 156.414062 103.5625 148.820312 101.78125 C 146.289062 101.390625 145.15625 102.265625 141.488281 102.105469 C 139.023438 102.007812 137.042969 101.519531 135.777344 101.132812 C 135.03125 106.710938 137.53125 112.582031 142.65625 116.152344 Z M 166.273438 126.957031 L 166.113281 127.183594 C 176.753906 131.628906 189.535156 121.765625 187.851562 110.378906 C 186.585938 110.734375 184.574219 111.21875 182.105469 111.316406 C 178.410156 111.449219 177.304688 110.570312 174.773438 110.960938 C 167.152344 112.777344 164.457031 118.683594 164.296875 123.839844 C 164.328125 123.808594 164.328125 123.808594 164.328125 123.777344 C 167.085938 120.109375 175.164062 116.054688 179.640625 116.347656 C 175.75 117.15625 168.222656 122.804688 166.273438 126.957031 Z M 162.480469 124.101562 C 162.480469 122.347656 162.15625 120.175781 160.757812 118.78125 C 159.917969 117.96875 157.710938 115.859375 156.835938 115.050781 L 159.105469 117.839844 C 159.753906 118.617188 160.726562 119.722656 160.988281 120.726562 C 161.570312 122.542969 160.921875 125.722656 160.921875 127.703125 C 160.921875 127.703125 160.109375 140.648438 160.109375 140.648438 C 158.84375 140.808594 157.675781 141.101562 156.542969 141.621094 C 155.925781 141.621094 155.4375 141.945312 155.113281 142.398438 C 151.96875 144.28125 149.761719 144.214844 147.457031 144.117188 C 145.867188 143.988281 144.410156 144.019531 143.207031 145.316406 C 142.234375 146.128906 141.035156 147.101562 139.085938 147.425781 C 138.015625 147.589844 136.71875 148.820312 135.714844 149.988281 L 155.375 152.652344 C 159.753906 153.234375 163 157.484375 162.382812 161.832031 L 194.824219 154.078125 C 194.046875 153.460938 192.230469 152.585938 188.078125 151.710938 C 183.308594 150.867188 181.101562 148.335938 178.570312 145.382812 C 176.753906 145.414062 170.007812 144.410156 168.511719 142.949219 C 168.351562 142.332031 167.832031 142.007812 167.3125 141.78125 C 166.566406 140.808594 165.007812 140.808594 163.550781 140.648438 L 162.867188 129.484375 C 163.515625 127.703125 164.492188 126.015625 165.789062 124.523438 C 164.683594 125.269531 163.648438 126.175781 162.738281 127.183594 Z M 162.480469 124.101562 " fill-opacity="1" fill-rule="nonzero"/></g></svg>