<svg xmlns="http://www.w3.org/2000/svg" xmlns:xlink="http://www.w3.org/1999/xlink" width="50" zoomAndPan="magnify" viewBox="0 0 37.5 37.499999" height="50" preserveAspectRatio="xMidYMid meet" version="1.0"><defs><clipPath id="063de0dde8"><path d="M 0.554688 0.449219 L 36.609375 0.449219 L 36.609375 36.503906 L 0.554688 36.503906 Z M 0.554688 0.449219 " clip-rule="nonzero"/></clipPath><clipPath id="b59dd46790"><path d="M 18.582031 0.449219 C 8.625 0.449219 0.554688 8.523438 0.554688 18.476562 C 0.554688 28.433594 8.625 36.503906 18.582031 36.503906 C 28.539062 36.503906 36.609375 28.433594 36.609375 18.476562 C 36.609375 8.523438 28.539062 0.449219 18.582031 0.449219 Z M 18.582031 0.449219 " clip-rule="nonzero"/></clipPath><clipPath id="580087aeb8"><path d="M 11.546875 20 L 25 20 L 25 25.066406 L 11.546875 25.066406 Z M 11.546875 20 " clip-rule="nonzero"/></clipPath><clipPath id="d2e3ecbdec"><path d="M 17 11.742188 L 25.609375 11.742188 L 25.609375 20 L 17 20 Z M 17 11.742188 " clip-rule="nonzero"/></clipPath></defs><g clip-path="url(#063de0dde8)"><g clip-path="url(#b59dd46790)"><path fill="#fff1e5" d="M 0.554688 0.449219 L 36.609375 0.449219 L 36.609375 36.503906 L 0.554688 36.503906 Z M 0.554688 0.449219 " fill-opacity="1" fill-rule="nonzero"/></g></g><path fill="#d66708" d="M 19.472656 15.195312 C 19.621094 16.050781 20.082031 16.722656 20.738281 17.042969 C 21.214844 17.273438 21.625 17.347656 21.953125 17.347656 C 22.234375 17.347656 22.453125 17.292969 22.601562 17.242188 C 22.632812 17.511719 22.617188 17.75 22.558594 17.960938 C 22.535156 18.050781 22.585938 18.140625 22.671875 18.167969 C 22.6875 18.171875 22.703125 18.171875 22.71875 18.171875 C 22.789062 18.171875 22.859375 18.125 22.878906 18.050781 C 22.964844 17.753906 22.972656 17.417969 22.90625 17.03125 C 22.988281 16.878906 23.167969 16.4375 23.003906 15.925781 C 22.832031 15.40625 22.363281 14.984375 21.601562 14.671875 C 20.570312 14.253906 20.375 14.046875 20.042969 13.519531 C 20.015625 13.476562 19.972656 13.445312 19.921875 13.441406 C 19.871094 13.4375 19.820312 13.453125 19.785156 13.488281 C 19.476562 13.804688 19.351562 14.488281 19.472656 15.195312 Z M 19.902344 13.90625 C 20.226562 14.367188 20.546875 14.601562 21.476562 14.980469 C 22.140625 15.253906 22.546875 15.605469 22.683594 16.023438 C 22.765625 16.273438 22.738281 16.507812 22.691406 16.671875 C 22.496094 16.371094 22.140625 16.015625 21.488281 15.8125 C 21.476562 15.808594 21.46875 15.804688 21.464844 15.804688 C 21.390625 15.773438 21.304688 15.796875 21.257812 15.863281 C 21.207031 15.941406 21.226562 16.042969 21.304688 16.09375 C 21.328125 16.109375 21.347656 16.117188 21.386719 16.128906 C 21.894531 16.285156 22.253906 16.558594 22.464844 16.941406 C 22.195312 17.027344 21.640625 17.113281 20.882812 16.746094 C 20.324219 16.472656 19.929688 15.886719 19.800781 15.140625 C 19.710938 14.621094 19.777344 14.171875 19.902344 13.90625 Z M 19.902344 13.90625 " fill-opacity="1" fill-rule="nonzero"/><g clip-path="url(#580087aeb8)"><path fill="#d66708" d="M 24.476562 20.5 L 22.527344 20.5 C 22.472656 20.5 22.421875 20.527344 22.390625 20.570312 C 22.359375 20.617188 22.351562 20.675781 22.371094 20.726562 C 22.441406 20.90625 22.546875 21.28125 22.453125 21.71875 C 22.347656 22.214844 22.054688 22.53125 21.890625 22.675781 C 21.832031 22.726562 21.816406 22.808594 21.851562 22.878906 C 22.042969 23.230469 22.007812 23.65625 21.769531 23.960938 C 21.429688 24.394531 20.859375 24.328125 20.855469 24.328125 C 20.789062 24.320312 20.726562 24.351562 20.691406 24.40625 C 20.667969 24.445312 20.574219 24.582031 20.40625 24.695312 C 20.492188 24.472656 20.472656 24.214844 20.324219 24.003906 C 20.210938 23.84375 20.042969 23.734375 19.847656 23.699219 C 19.652344 23.664062 19.457031 23.707031 19.292969 23.820312 C 19.152344 23.917969 19.054688 24.058594 19.007812 24.214844 C 19.035156 23.980469 18.976562 23.746094 18.84375 23.550781 C 18.695312 23.339844 18.472656 23.199219 18.21875 23.152344 C 17.96875 23.109375 17.710938 23.164062 17.5 23.3125 C 17.171875 23.539062 17.03125 23.933594 17.105469 24.296875 C 17.066406 24.25 17.003906 24.230469 16.945312 24.242188 C 17.011719 24.042969 16.988281 23.816406 16.859375 23.632812 C 16.648438 23.328125 16.222656 23.25 15.917969 23.464844 C 15.664062 23.640625 15.570312 23.960938 15.664062 24.238281 C 15.480469 24.101562 15.382812 23.9375 15.351562 23.875 C 15.324219 23.832031 15.28125 23.796875 15.230469 23.789062 C 15.164062 23.78125 14.8125 23.707031 14.621094 23.375 C 14.453125 23.085938 14.515625 22.796875 14.539062 22.710938 C 14.558594 22.640625 14.527344 22.5625 14.464844 22.523438 C 14.3125 22.433594 14.039062 22.230469 13.894531 21.859375 C 13.695312 21.339844 13.898438 20.871094 13.964844 20.742188 C 13.992188 20.691406 13.988281 20.628906 13.960938 20.578125 C 13.929688 20.53125 13.875 20.5 13.816406 20.5 L 11.714844 20.5 C 11.621094 20.5 11.546875 20.574219 11.546875 20.667969 C 11.546875 20.757812 11.621094 20.832031 11.714844 20.832031 L 13.570312 20.832031 C 13.480469 21.097656 13.40625 21.519531 13.585938 21.980469 C 13.734375 22.367188 14 22.609375 14.191406 22.746094 C 14.164062 22.921875 14.15625 23.234375 14.335938 23.542969 C 14.554688 23.925781 14.921875 24.058594 15.097656 24.101562 C 15.207031 24.28125 15.449219 24.582031 15.878906 24.71875 C 16.34375 24.859375 16.742188 24.71875 16.945312 24.613281 C 17.117188 24.789062 17.4375 25.039062 17.90625 25.109375 C 18.410156 25.183594 18.808594 25.011719 19.027344 24.878906 C 19.121094 24.957031 19.265625 25.054688 19.457031 25.121094 C 19.460938 25.125 19.460938 25.125 19.464844 25.125 C 19.46875 25.125 19.472656 25.128906 19.480469 25.128906 C 19.492188 25.132812 19.503906 25.136719 19.515625 25.140625 C 19.621094 25.171875 19.742188 25.195312 19.875 25.195312 C 19.921875 25.195312 19.96875 25.191406 20.015625 25.1875 C 20.5 25.132812 20.792969 24.824219 20.917969 24.664062 C 21.140625 24.667969 21.671875 24.625 22.03125 24.167969 C 22.324219 23.789062 22.386719 23.28125 22.203125 22.839844 C 22.398438 22.640625 22.671875 22.292969 22.777344 21.789062 C 22.855469 21.414062 22.820312 21.085938 22.753906 20.832031 L 24.476562 20.832031 C 24.570312 20.832031 24.644531 20.757812 24.644531 20.667969 C 24.644531 20.574219 24.570312 20.5 24.476562 20.5 Z M 16.105469 23.738281 C 16.261719 23.628906 16.480469 23.667969 16.589844 23.824219 C 16.699219 23.980469 16.660156 24.195312 16.503906 24.304688 C 16.425781 24.355469 16.335938 24.378906 16.242188 24.359375 C 16.152344 24.34375 16.074219 24.292969 16.019531 24.21875 C 15.910156 24.0625 15.949219 23.847656 16.105469 23.738281 Z M 19.484375 24.09375 C 19.550781 24.046875 19.632812 24.019531 19.714844 24.019531 C 19.738281 24.019531 19.765625 24.023438 19.789062 24.027344 C 19.894531 24.046875 19.988281 24.105469 20.050781 24.195312 C 20.179688 24.378906 20.136719 24.636719 19.949219 24.765625 C 19.851562 24.832031 19.734375 24.851562 19.625 24.824219 C 19.601562 24.820312 19.582031 24.8125 19.558594 24.804688 C 19.488281 24.777344 19.425781 24.730469 19.382812 24.664062 C 19.253906 24.476562 19.296875 24.222656 19.484375 24.09375 Z M 17.6875 23.585938 C 17.828125 23.488281 17.996094 23.453125 18.164062 23.480469 C 18.328125 23.511719 18.472656 23.601562 18.570312 23.742188 C 18.667969 23.878906 18.703125 24.046875 18.671875 24.214844 C 18.644531 24.378906 18.550781 24.527344 18.414062 24.621094 C 18.125 24.820312 17.730469 24.75 17.53125 24.464844 C 17.332031 24.179688 17.402344 23.785156 17.6875 23.585938 Z M 18.894531 24.570312 C 18.929688 24.507812 18.957031 24.4375 18.980469 24.367188 C 18.976562 24.414062 18.976562 24.464844 18.980469 24.515625 C 18.96875 24.523438 18.960938 24.527344 18.949219 24.535156 C 18.9375 24.542969 18.917969 24.558594 18.894531 24.570312 Z M 18.894531 24.570312 " fill-opacity="1" fill-rule="nonzero"/></g><path fill="#d66708" d="M 18.367188 20.285156 C 18.203125 20.257812 18.035156 20.292969 17.898438 20.386719 C 17.617188 20.585938 17.546875 20.976562 17.742188 21.261719 C 17.867188 21.433594 18.058594 21.527344 18.257812 21.527344 C 18.382812 21.527344 18.507812 21.492188 18.617188 21.417969 C 18.753906 21.320312 18.84375 21.175781 18.875 21.011719 C 18.902344 20.847656 18.867188 20.679688 18.773438 20.542969 C 18.675781 20.40625 18.53125 20.316406 18.367188 20.285156 Z M 18.546875 20.953125 C 18.535156 21.03125 18.492188 21.097656 18.425781 21.144531 C 18.292969 21.238281 18.109375 21.203125 18.015625 21.070312 C 17.921875 20.9375 17.957031 20.753906 18.089844 20.660156 C 18.140625 20.625 18.199219 20.609375 18.257812 20.609375 C 18.273438 20.609375 18.292969 20.609375 18.308594 20.613281 C 18.386719 20.625 18.453125 20.667969 18.5 20.734375 C 18.542969 20.796875 18.5625 20.875 18.546875 20.953125 Z M 18.546875 20.953125 " fill-opacity="1" fill-rule="nonzero"/><path fill="#d66708" d="M 17.0625 23.070312 C 17.101562 23.078125 17.140625 23.082031 17.179688 23.082031 C 17.316406 23.082031 17.445312 23.042969 17.558594 22.960938 C 17.703125 22.859375 17.800781 22.707031 17.832031 22.535156 C 17.863281 22.359375 17.824219 22.183594 17.722656 22.039062 C 17.621094 21.890625 17.46875 21.792969 17.296875 21.761719 C 17.121094 21.730469 16.945312 21.769531 16.796875 21.871094 C 16.652344 21.972656 16.554688 22.125 16.523438 22.300781 C 16.492188 22.476562 16.53125 22.652344 16.632812 22.796875 C 16.734375 22.941406 16.886719 23.039062 17.0625 23.070312 Z M 16.851562 22.359375 C 16.867188 22.269531 16.914062 22.195312 16.988281 22.144531 C 17.046875 22.105469 17.109375 22.085938 17.179688 22.085938 C 17.199219 22.085938 17.21875 22.085938 17.238281 22.089844 C 17.324219 22.105469 17.402344 22.15625 17.453125 22.226562 C 17.503906 22.300781 17.523438 22.386719 17.507812 22.476562 C 17.492188 22.5625 17.441406 22.640625 17.367188 22.691406 C 17.296875 22.742188 17.207031 22.761719 17.121094 22.746094 C 17.03125 22.730469 16.957031 22.679688 16.90625 22.605469 C 16.855469 22.535156 16.835938 22.445312 16.851562 22.359375 Z M 16.851562 22.359375 " fill-opacity="1" fill-rule="nonzero"/><path fill="#d66708" d="M 17.933594 18 C 17.828125 17.980469 17.722656 18.003906 17.636719 18.066406 C 17.550781 18.125 17.492188 18.214844 17.472656 18.320312 C 17.453125 18.425781 17.476562 18.53125 17.539062 18.617188 C 17.597656 18.703125 17.6875 18.761719 17.792969 18.78125 C 17.816406 18.785156 17.839844 18.789062 17.863281 18.789062 C 17.945312 18.789062 18.023438 18.761719 18.089844 18.714844 C 18.269531 18.589844 18.3125 18.34375 18.1875 18.164062 C 18.128906 18.078125 18.035156 18.019531 17.933594 18 Z M 17.898438 18.441406 C 17.878906 18.457031 17.859375 18.457031 17.851562 18.453125 C 17.839844 18.453125 17.824219 18.445312 17.808594 18.425781 C 17.796875 18.40625 17.796875 18.390625 17.800781 18.378906 C 17.800781 18.371094 17.808594 18.351562 17.824219 18.335938 C 17.839844 18.328125 17.851562 18.324219 17.863281 18.324219 C 17.867188 18.324219 17.871094 18.328125 17.875 18.328125 C 17.882812 18.328125 17.902344 18.335938 17.914062 18.351562 C 17.9375 18.382812 17.929688 18.421875 17.898438 18.441406 Z M 17.898438 18.441406 " fill-opacity="1" fill-rule="nonzero"/><path fill="#d66708" d="M 18.652344 22.121094 C 18.414062 22.289062 18.351562 22.621094 18.519531 22.859375 C 18.601562 22.976562 18.722656 23.054688 18.863281 23.082031 C 18.894531 23.085938 18.925781 23.089844 18.957031 23.089844 C 19.066406 23.089844 19.171875 23.054688 19.261719 22.992188 C 19.5 22.824219 19.5625 22.492188 19.394531 22.253906 C 19.226562 22.011719 18.894531 21.953125 18.652344 22.121094 Z M 18.84375 22.394531 C 18.933594 22.332031 19.058594 22.351562 19.121094 22.441406 C 19.183594 22.53125 19.160156 22.65625 19.070312 22.71875 C 19.027344 22.75 18.972656 22.761719 18.921875 22.753906 C 18.871094 22.742188 18.824219 22.714844 18.792969 22.671875 C 18.730469 22.582031 18.753906 22.457031 18.84375 22.394531 Z M 18.84375 22.394531 " fill-opacity="1" fill-rule="nonzero"/><path fill="#d66708" d="M 17.027344 17.769531 C 17.113281 17.769531 17.199219 17.746094 17.273438 17.691406 C 17.46875 17.558594 17.515625 17.289062 17.382812 17.09375 C 17.246094 16.898438 16.976562 16.851562 16.78125 16.984375 C 16.585938 17.121094 16.539062 17.390625 16.675781 17.585938 C 16.757812 17.707031 16.894531 17.769531 17.027344 17.769531 Z M 16.972656 17.257812 C 17.015625 17.226562 17.078125 17.238281 17.109375 17.28125 C 17.140625 17.328125 17.128906 17.390625 17.085938 17.417969 C 17.039062 17.449219 16.976562 17.441406 16.949219 17.394531 C 16.917969 17.351562 16.925781 17.289062 16.972656 17.257812 Z M 16.972656 17.257812 " fill-opacity="1" fill-rule="nonzero"/><path fill="#d66708" d="M 17.140625 20.230469 C 17.253906 20.230469 17.371094 20.195312 17.46875 20.125 C 17.597656 20.039062 17.679688 19.90625 17.707031 19.757812 C 17.734375 19.605469 17.699219 19.453125 17.613281 19.328125 C 17.527344 19.199219 17.394531 19.117188 17.242188 19.089844 C 17.089844 19.0625 16.9375 19.09375 16.8125 19.183594 C 16.550781 19.363281 16.488281 19.722656 16.667969 19.984375 C 16.78125 20.144531 16.960938 20.230469 17.140625 20.230469 Z M 17.003906 19.457031 C 17.054688 19.417969 17.121094 19.40625 17.183594 19.417969 C 17.246094 19.425781 17.304688 19.464844 17.339844 19.515625 C 17.378906 19.570312 17.390625 19.632812 17.378906 19.699219 C 17.367188 19.761719 17.332031 19.816406 17.28125 19.855469 C 17.171875 19.929688 17.019531 19.902344 16.941406 19.792969 C 16.867188 19.683594 16.894531 19.53125 17.003906 19.457031 Z M 17.003906 19.457031 " fill-opacity="1" fill-rule="nonzero"/><path fill="#d66708" d="M 17.726562 16.765625 C 17.75 16.773438 17.773438 16.773438 17.796875 16.773438 C 17.882812 16.773438 17.964844 16.75 18.035156 16.699219 C 18.125 16.636719 18.1875 16.542969 18.207031 16.433594 C 18.222656 16.324219 18.199219 16.214844 18.136719 16.125 C 18.074219 16.03125 17.980469 15.972656 17.871094 15.953125 C 17.761719 15.933594 17.652344 15.957031 17.5625 16.019531 C 17.46875 16.082031 17.410156 16.179688 17.390625 16.285156 C 17.371094 16.394531 17.394531 16.503906 17.457031 16.597656 C 17.519531 16.6875 17.617188 16.75 17.726562 16.765625 Z M 17.71875 16.34375 C 17.71875 16.332031 17.726562 16.308594 17.75 16.292969 C 17.765625 16.28125 17.785156 16.277344 17.796875 16.277344 C 17.804688 16.277344 17.808594 16.277344 17.8125 16.28125 C 17.824219 16.28125 17.847656 16.289062 17.863281 16.3125 C 17.882812 16.335938 17.878906 16.363281 17.878906 16.375 C 17.875 16.386719 17.867188 16.410156 17.84375 16.425781 C 17.820312 16.445312 17.796875 16.441406 17.78125 16.441406 C 17.769531 16.4375 17.746094 16.429688 17.730469 16.40625 C 17.714844 16.382812 17.714844 16.359375 17.71875 16.34375 Z M 17.71875 16.34375 " fill-opacity="1" fill-rule="nonzero"/><g clip-path="url(#d2e3ecbdec)"><path fill="#d66708" d="M 25.601562 15.820312 C 25.59375 15.773438 25.570312 15.738281 25.53125 15.710938 L 19.722656 11.785156 C 19.683594 11.761719 19.640625 11.753906 19.597656 11.761719 C 19.554688 11.769531 19.515625 11.792969 19.492188 11.832031 L 17.621094 14.601562 C 17.570312 14.675781 17.585938 14.777344 17.660156 14.828125 C 18.335938 15.308594 18.636719 16.164062 18.402344 16.957031 C 18.382812 17.027344 18.410156 17.101562 18.472656 17.140625 L 22.65625 19.96875 C 22.683594 19.988281 22.714844 20 22.75 20 C 22.757812 20 22.769531 19.996094 22.78125 19.996094 C 22.824219 19.988281 22.863281 19.960938 22.886719 19.925781 L 25.578125 15.941406 C 25.601562 15.90625 25.609375 15.863281 25.601562 15.820312 Z M 22.703125 19.601562 L 18.753906 16.933594 C 18.953125 16.089844 18.652344 15.207031 17.984375 14.65625 L 19.671875 12.15625 L 25.207031 15.894531 Z M 22.703125 19.601562 " fill-opacity="1" fill-rule="nonzero"/></g></svg>