<svg xmlns="http://www.w3.org/2000/svg" xmlns:xlink="http://www.w3.org/1999/xlink" width="50" zoomAndPan="magnify" viewBox="0 0 37.5 37.499999" height="50" preserveAspectRatio="xMidYMid meet" version="1.0"><defs><clipPath id="9b4bef3b5e"><path d="M 0.59375 0.449219 L 36.648438 0.449219 L 36.648438 36.503906 L 0.59375 36.503906 Z M 0.59375 0.449219 " clip-rule="nonzero"/></clipPath><clipPath id="c1174d884a"><path d="M 18.621094 0.449219 C 8.664062 0.449219 0.59375 8.523438 0.59375 18.476562 C 0.59375 28.433594 8.664062 36.503906 18.621094 36.503906 C 28.574219 36.503906 36.648438 28.433594 36.648438 18.476562 C 36.648438 8.523438 28.574219 0.449219 18.621094 0.449219 Z M 18.621094 0.449219 " clip-rule="nonzero"/></clipPath><clipPath id="eb4439ca3a"><path d="M 11.878906 18.089844 L 15.578125 18.089844 L 15.578125 21.792969 L 11.878906 21.792969 Z M 11.878906 18.089844 " clip-rule="nonzero"/></clipPath><clipPath id="d183c2ba2c"><path d="M 15.4375 14.917969 L 19.136719 14.917969 L 19.136719 18.617188 L 15.4375 18.617188 Z M 15.4375 14.917969 " clip-rule="nonzero"/></clipPath><clipPath id="5a7a98a902"><path d="M 18.996094 11.742188 L 22.695312 11.742188 L 22.695312 15.441406 L 18.996094 15.441406 Z M 18.996094 11.742188 " clip-rule="nonzero"/></clipPath><clipPath id="a3fdc8accf"><path d="M 16.652344 19.679688 L 20.351562 19.679688 L 20.351562 23.378906 L 16.652344 23.378906 Z M 16.652344 19.679688 " clip-rule="nonzero"/></clipPath><clipPath id="6e6c8b0455"><path d="M 20.210938 16.503906 L 23.910156 16.503906 L 23.910156 20.203125 L 20.210938 20.203125 Z M 20.210938 16.503906 " clip-rule="nonzero"/></clipPath><clipPath id="f06de10790"><path d="M 21.488281 21.339844 L 25.1875 21.339844 L 25.1875 25.039062 L 21.488281 25.039062 Z M 21.488281 21.339844 " clip-rule="nonzero"/></clipPath></defs><g clip-path="url(#9b4bef3b5e)"><g clip-path="url(#c1174d884a)"><path fill="#fff1e9" d="M 0.59375 0.449219 L 36.648438 0.449219 L 36.648438 36.503906 L 0.59375 36.503906 Z M 0.59375 0.449219 " fill-opacity="1" fill-rule="nonzero"/></g></g><g clip-path="url(#eb4439ca3a)"><path fill="#e48f60" d="M 15.753906 20.027344 C 15.753906 20.285156 15.703125 20.53125 15.605469 20.769531 C 15.507812 21.007812 15.367188 21.214844 15.183594 21.398438 C 15.003906 21.578125 14.792969 21.71875 14.558594 21.816406 C 14.320312 21.917969 14.070312 21.964844 13.816406 21.964844 C 13.558594 21.964844 13.3125 21.917969 13.074219 21.816406 C 12.835938 21.71875 12.628906 21.578125 12.445312 21.398438 C 12.265625 21.214844 12.125 21.007812 12.027344 20.769531 C 11.925781 20.53125 11.878906 20.285156 11.878906 20.027344 C 11.878906 19.769531 11.925781 19.523438 12.027344 19.285156 C 12.125 19.050781 12.265625 18.839844 12.445312 18.660156 C 12.628906 18.476562 12.835938 18.335938 13.074219 18.238281 C 13.3125 18.140625 13.558594 18.089844 13.816406 18.089844 C 14.070312 18.089844 14.320312 18.140625 14.558594 18.238281 C 14.792969 18.335938 15.003906 18.476562 15.183594 18.660156 C 15.367188 18.839844 15.507812 19.050781 15.605469 19.285156 C 15.703125 19.523438 15.753906 19.769531 15.753906 20.027344 Z M 15.753906 20.027344 " fill-opacity="1" fill-rule="nonzero"/></g><g clip-path="url(#d183c2ba2c)"><path fill="#e48f60" d="M 19.3125 16.855469 C 19.3125 17.109375 19.261719 17.359375 19.164062 17.59375 C 19.066406 17.832031 18.925781 18.042969 18.742188 18.222656 C 18.5625 18.40625 18.351562 18.546875 18.117188 18.644531 C 17.878906 18.742188 17.632812 18.792969 17.375 18.792969 C 17.117188 18.792969 16.871094 18.742188 16.632812 18.644531 C 16.394531 18.546875 16.1875 18.40625 16.003906 18.222656 C 15.824219 18.042969 15.683594 17.832031 15.585938 17.59375 C 15.484375 17.359375 15.4375 17.109375 15.4375 16.855469 C 15.4375 16.597656 15.484375 16.351562 15.585938 16.113281 C 15.683594 15.875 15.824219 15.664062 16.003906 15.484375 C 16.1875 15.300781 16.394531 15.164062 16.632812 15.0625 C 16.871094 14.964844 17.117188 14.917969 17.375 14.917969 C 17.632812 14.917969 17.878906 14.964844 18.117188 15.0625 C 18.351562 15.164062 18.5625 15.300781 18.742188 15.484375 C 18.925781 15.664062 19.066406 15.875 19.164062 16.113281 C 19.261719 16.351562 19.3125 16.597656 19.3125 16.855469 Z M 19.3125 16.855469 " fill-opacity="1" fill-rule="nonzero"/></g><g clip-path="url(#5a7a98a902)"><path fill="#e48f60" d="M 22.871094 13.679688 C 22.871094 13.9375 22.820312 14.183594 22.722656 14.421875 C 22.625 14.65625 22.484375 14.867188 22.300781 15.050781 C 22.121094 15.230469 21.910156 15.371094 21.675781 15.46875 C 21.4375 15.566406 21.191406 15.617188 20.933594 15.617188 C 20.675781 15.617188 20.429688 15.566406 20.191406 15.46875 C 19.953125 15.371094 19.746094 15.230469 19.5625 15.050781 C 19.382812 14.867188 19.242188 14.65625 19.144531 14.421875 C 19.042969 14.183594 18.996094 13.9375 18.996094 13.679688 C 18.996094 13.421875 19.042969 13.175781 19.144531 12.9375 C 19.242188 12.699219 19.382812 12.492188 19.5625 12.308594 C 19.746094 12.128906 19.953125 11.988281 20.191406 11.890625 C 20.429688 11.792969 20.675781 11.742188 20.933594 11.742188 C 21.191406 11.742188 21.4375 11.792969 21.675781 11.890625 C 21.910156 11.988281 22.121094 12.128906 22.300781 12.308594 C 22.484375 12.492188 22.625 12.699219 22.722656 12.9375 C 22.820312 13.175781 22.871094 13.421875 22.871094 13.679688 Z M 22.871094 13.679688 " fill-opacity="1" fill-rule="nonzero"/></g><g clip-path="url(#a3fdc8accf)"><path fill="#e48f60" d="M 20.523438 21.617188 C 20.523438 21.871094 20.476562 22.121094 20.378906 22.355469 C 20.277344 22.59375 20.140625 22.804688 19.957031 22.984375 C 19.777344 23.167969 19.566406 23.308594 19.328125 23.40625 C 19.089844 23.503906 18.84375 23.550781 18.585938 23.550781 C 18.332031 23.550781 18.082031 23.503906 17.847656 23.40625 C 17.609375 23.308594 17.398438 23.167969 17.21875 22.984375 C 17.035156 22.804688 16.894531 22.59375 16.796875 22.355469 C 16.699219 22.121094 16.652344 21.871094 16.652344 21.617188 C 16.652344 21.359375 16.699219 21.109375 16.796875 20.875 C 16.894531 20.636719 17.035156 20.425781 17.21875 20.246094 C 17.398438 20.0625 17.609375 19.921875 17.847656 19.824219 C 18.082031 19.726562 18.332031 19.679688 18.585938 19.679688 C 18.84375 19.679688 19.089844 19.726562 19.328125 19.824219 C 19.566406 19.921875 19.777344 20.0625 19.957031 20.246094 C 20.140625 20.425781 20.277344 20.636719 20.378906 20.875 C 20.476562 21.109375 20.523438 21.359375 20.523438 21.617188 Z M 20.523438 21.617188 " fill-opacity="1" fill-rule="nonzero"/></g><g clip-path="url(#6e6c8b0455)"><path fill="#e48f60" d="M 24.082031 18.441406 C 24.082031 18.699219 24.035156 18.945312 23.9375 19.183594 C 23.839844 19.417969 23.699219 19.628906 23.515625 19.8125 C 23.335938 19.992188 23.125 20.132812 22.886719 20.230469 C 22.652344 20.328125 22.402344 20.378906 22.144531 20.378906 C 21.890625 20.378906 21.640625 20.328125 21.40625 20.230469 C 21.167969 20.132812 20.957031 19.992188 20.777344 19.8125 C 20.59375 19.628906 20.453125 19.417969 20.355469 19.183594 C 20.257812 18.945312 20.210938 18.699219 20.210938 18.441406 C 20.210938 18.183594 20.257812 17.9375 20.355469 17.699219 C 20.453125 17.460938 20.59375 17.253906 20.777344 17.070312 C 20.957031 16.890625 21.167969 16.75 21.40625 16.652344 C 21.640625 16.554688 21.890625 16.503906 22.144531 16.503906 C 22.402344 16.503906 22.652344 16.554688 22.886719 16.652344 C 23.125 16.75 23.335938 16.890625 23.515625 17.070312 C 23.699219 17.253906 23.839844 17.460938 23.9375 17.699219 C 24.035156 17.9375 24.082031 18.183594 24.082031 18.441406 Z M 24.082031 18.441406 " fill-opacity="1" fill-rule="nonzero"/></g><g clip-path="url(#f06de10790)"><path fill="#e48f60" d="M 25.363281 23.277344 C 25.363281 23.535156 25.3125 23.78125 25.214844 24.019531 C 25.117188 24.257812 24.976562 24.464844 24.792969 24.648438 C 24.613281 24.828125 24.402344 24.96875 24.164062 25.066406 C 23.929688 25.164062 23.679688 25.214844 23.425781 25.214844 C 23.167969 25.214844 22.921875 25.164062 22.683594 25.066406 C 22.445312 24.96875 22.234375 24.828125 22.054688 24.648438 C 21.871094 24.464844 21.734375 24.257812 21.632812 24.019531 C 21.535156 23.78125 21.488281 23.535156 21.488281 23.277344 C 21.488281 23.019531 21.535156 22.773438 21.632812 22.535156 C 21.734375 22.296875 21.871094 22.089844 22.054688 21.90625 C 22.234375 21.726562 22.445312 21.585938 22.683594 21.488281 C 22.921875 21.390625 23.167969 21.339844 23.425781 21.339844 C 23.679688 21.339844 23.929688 21.390625 24.164062 21.488281 C 24.402344 21.585938 24.613281 21.726562 24.792969 21.90625 C 24.976562 22.089844 25.117188 22.296875 25.214844 22.535156 C 25.3125 22.773438 25.363281 23.019531 25.363281 23.277344 Z M 25.363281 23.277344 " fill-opacity="1" fill-rule="nonzero"/></g></svg>